<?xml version="1.0" standalone="no"?>
<!DOCTYPE svg PUBLIC "-//W3C//DTD SVG 1.1//EN" "http://www.w3.org/Graphics/SVG/1.1/DTD/svg11.dtd" >
<svg xmlns="http://www.w3.org/2000/svg" xmlns:xlink="http://www.w3.org/1999/xlink" version="1.1">
<metadata>
Created by FontForge 20161013 at Fri Jan  1 02:30:17 1904
 By ,,,
Copyright (C) 1990-1992 ParaGraph JV.
</metadata>
<defs>
<font id="Pragmatica" horiz-adv-x="0" >
  <font-face 
    font-family="Pragmatica"
    font-weight="400"
    font-stretch="normal"
    units-per-em="4096"
    panose-1="2 11 114 0 0 0 0 0 0 0"
    ascent="3276"
    descent="-820"
    x-height="2208"
    cap-height="3039"
    bbox="-803 -877 5407 3756"
    underline-thickness="56"
    underline-position="-298"
    unicode-range="U+0020-2122"
  />
<missing-glyph horiz-adv-x="3072" 
d="M512 0v2560h2048v-2560h-2048zM2494 66v2428h-1916v-2428h1916z" />
    <glyph glyph-name=".notdef" horiz-adv-x="3072" 
d="M512 0v2560h2048v-2560h-2048zM2494 66v2428h-1916v-2428h1916z" />
    <glyph glyph-name=".null" 
 />
    <glyph glyph-name="nonmarkingreturn" 
 />
    <glyph glyph-name="space" unicode=" " horiz-adv-x="1438" 
 />
    <glyph glyph-name="exclam" unicode="!" horiz-adv-x="1348" 
d="M459 3039h430v-1167l-107 -1000h-213l-110 1000v1167zM459 0v475h430v-475h-430z" />
    <glyph glyph-name="quotedbl" unicode="&#x22;" horiz-adv-x="2154" 
d="M963 3039l-172 -831h-230l-172 831h574zM1765 3039l-172 -831h-229l-172 831h573z" />
    <glyph glyph-name="numbersign" unicode="#" horiz-adv-x="4313" 
d="M2626 -242h-369l143 729h-782l-139 -729h-369l143 729h-729l70 369h729l152 778h-730l74 369h725l144 725h368l-143 -725h778l143 725h369l-143 -725h729l-74 -369h-725l-151 -778h725l-70 -369h-729zM2470 856l151 778h-778l-151 -778h778z" />
    <glyph glyph-name="dollar" unicode="$" horiz-adv-x="2654" 
d="M229 905h389q17 -362 204 -504t411 -155v1155q-239 56 -404 120t-281.5 159.5t-178.5 240t-62 348.5q0 290 134 475.5t343.5 266.5t448.5 81v283h229v-283q275 -4 469 -107t292.5 -281t98.5 -402h-372q-3 208 -138.5 351.5t-353.5 152.5v-1073q483 -88 725 -301.5
t242 -600.5q0 -324 -153 -519.5t-372.5 -276.5t-437.5 -88v-353h-229v353q-250 9 -435 77t-307.5 190t-186 294.5t-75.5 396.5zM1458 1364v-1118q285 0 431.5 175.5t146.5 409.5q0 451 -578 533zM1233 1769v1037q-200 -5 -372.5 -112t-172.5 -408q0 -131 48 -229.5
t169 -171.5t328 -116z" />
    <glyph glyph-name="percent" unicode="%" horiz-adv-x="3957" 
d="M852 0l1970 3039h307l-1970 -3039h-307zM229 2204q0 310 111.5 505t276 279t329.5 84q147 0 311.5 -77t283 -271.5t118.5 -519.5q0 -193 -63 -390t-222 -336t-428 -139q-254 0 -414.5 129.5t-231.5 329t-71 406.5zM508 2204q0 -226 99 -430.5t339 -204.5
q267 0 350.5 217.5t83.5 417.5q0 315 -123.5 477t-310.5 162q-114 0 -214.5 -70t-162 -214t-61.5 -355zM2302 836q0 194 63 390t222 335t428 139q226 0 388 -112.5t243 -309.5t81 -442q0 -266 -77.5 -440.5t-192.5 -266.5t-232 -127t-210 -35q-147 0 -311.5 77t-283 272.5
t-118.5 519.5zM2580 836q0 -317 124 -478t311 -161q118 0 216 68.5t158 212.5t60 358q0 260 -105.5 447t-328.5 187q-267 0 -351 -217t-84 -417z" />
    <glyph glyph-name="ampersand" unicode="&#x26;" horiz-adv-x="2966" 
d="M2351 1327h344q-60 -420 -250 -709l521 -618h-455l-299 356q-319 -430 -946 -430q-323 0 -538.5 128t-316 330t-100.5 427q0 236 91.5 411.5t255 300.5t403.5 234q-174 214 -236.5 356t-62.5 300q0 280 189.5 453t514.5 173q80 0 229.5 -36.5t292 -171.5t142.5 -402
q0 -274 -169.5 -460t-395.5 -298l663 -790q85 160 123 446zM2011 602l-754 909q-548 -238 -548 -696q0 -253 175.5 -407t434.5 -154q134 0 264 36t241.5 114.5t186.5 197.5zM1376 1901q169 64 289.5 201t120.5 335q0 133 -92.5 224.5t-231.5 91.5q-146 0 -247 -85.5
t-101 -246.5q0 -90 34 -171.5t75 -140t153 -208.5z" />
    <glyph glyph-name="quotesingle" unicode="'" horiz-adv-x="1352" 
d="M963 3039l-172 -831h-230l-172 831h574z" />
    <glyph glyph-name="parenleft" unicode="(" horiz-adv-x="1585" 
d="M938 3039h287q-138 -274 -239 -526.5t-164 -481.5t-94.5 -457t-31.5 -456q0 -881 529 -1921h-287q-204 352 -330.5 624.5t-191 487t-87 403t-22.5 406.5q0 219 22.5 407t86 401.5t191.5 488.5t331 624z" />
    <glyph glyph-name="parenright" unicode=")" horiz-adv-x="1585" 
d="M647 -803h-287q178 354 288.5 658t161 534.5t65 394t14.5 334.5q0 148 -11 297.5t-61 389t-160.5 552t-296.5 682.5h287q208 -336 338.5 -626.5t193.5 -523.5t81 -406.5t18 -364.5q0 -190 -18.5 -363t-81.5 -407t-192.5 -523t-338.5 -628z" />
    <glyph glyph-name="asterisk" unicode="*" horiz-adv-x="2019" 
d="M1012 2220l-348 -471l-172 131l335 467l-540 176l69 205l549 -176v573h213v-573l545 176l70 -205l-541 -176l340 -467l-176 -131z" />
    <glyph glyph-name="plus" unicode="+" horiz-adv-x="3039" 
d="M229 1634h1176v1176h229v-1176h1176v-229h-1176v-1176h-229v1176h-1176v229z" />
    <glyph glyph-name="comma" unicode="," horiz-adv-x="1348" 
d="M459 0v475h430v-622q0 -155 -98.5 -297.5t-331.5 -198.5v237q94 19 155.5 97.5t61.5 173.5v135h-217z" />
    <glyph glyph-name="hyphen" unicode="-" horiz-adv-x="1835" 
d="M344 975v373h1147v-373h-1147z" />
    <glyph glyph-name="period" unicode="." horiz-adv-x="1348" 
d="M459 0v475h430v-475h-430z" />
    <glyph glyph-name="slash" unicode="/" horiz-adv-x="1864" 
d="M0 -803l1548 3842h316l-1549 -3842h-315z" />
    <glyph glyph-name="zero" unicode="0" horiz-adv-x="2527" 
d="M1262 -66q-394 0 -632 228.5t-333.5 584.5t-95.5 773q0 416 95.5 772t333.5 584.5t632 228.5q396 0 634.5 -228.5t334.5 -586t96 -770.5q0 -415 -96 -771.5t-334.5 -585.5t-634.5 -229zM1262 262q663 0 663 1258q0 1257 -663 1257q-660 0 -660 -1257q0 -214 20 -418
t86.5 -398t202.5 -318t351 -124z" />
    <glyph glyph-name="one" unicode="1" horiz-adv-x="2511" 
d="M561 2286v213h90q192 0 352 71.5t257.5 195.5t115.5 273h287v-3039h-410v2286h-692z" />
    <glyph glyph-name="two" unicode="2" horiz-adv-x="2527" 
d="M2314 344v-344h-2056q0 334 111.5 561.5t321 403t595.5 419.5q206 130 329 228t206.5 245t83.5 351q0 250 -125 375t-258 155.5t-228 30.5q-227 0 -372 -94t-208 -229.5t-63 -262.5v-110h-385v90q0 205 91.5 418.5t324 364.5t625.5 151q434 0 656.5 -178t282.5 -374.5
t60 -332.5q0 -238 -77 -417.5t-251.5 -340.5t-486.5 -352q-273 -167 -432 -291.5t-241 -235.5t-109 -231h1605z" />
    <glyph glyph-name="three" unicode="3" horiz-adv-x="2523" 
d="M176 926h393q31 -378 219 -517t429 -139q145 0 295 37.5t271.5 173t121.5 396.5q0 185 -103 369t-450 184q-246 0 -312 -5l-4 328h123q249 0 456.5 105t207.5 419q0 290 -183.5 393t-414.5 103q-590 0 -590 -659h-377q0 230 74 448.5t292.5 376.5t612.5 158
q322 0 539.5 -112t320.5 -294t103 -393q0 -282 -150.5 -447t-345.5 -229v-20q259 -35 422.5 -241t163.5 -513q0 -303 -143.5 -507.5t-381.5 -301t-524 -96.5q-385 0 -619 142t-333 361t-113 480z" />
    <glyph glyph-name="four" unicode="4" horiz-adv-x="2548" 
d="M1544 700h-1429v353l1425 1986h414v-1995h479v-344h-479v-700h-410v700zM504 1044h1040v1463z" />
    <glyph glyph-name="five" unicode="5" horiz-adv-x="2523" 
d="M205 778h397q105 -499 627 -499q262 0 485 135t223 573q0 116 -37.5 272t-186 298.5t-443.5 142.5q-130 0 -305 -50.5t-293 -211.5h-381l213 1601h1642v-344h-1343l-123 -897q267 225 688 225q295 0 511 -133t327.5 -367.5t111.5 -531.5q0 -181 -46 -356.5t-163 -329.5
t-335 -252t-545 -98q-393 0 -617.5 144t-308 328.5t-98.5 350.5z" />
    <glyph glyph-name="six" unicode="6" horiz-adv-x="2523" 
d="M2286 2372h-369q-68 233 -219 309t-359 76q-175 0 -332.5 -71.5t-279.5 -309.5t-137 -697h16q248 324 746 324q294 0 516.5 -133.5t340.5 -366t118 -520.5q0 -219 -63 -406t-192 -329t-326.5 -221.5t-459.5 -79.5q-336 0 -574.5 127.5t-376.5 464.5t-138 940
q0 968 350 1286.5t796 318.5q766 0 943 -712zM627 971q0 -244 150.5 -470.5t525.5 -226.5q198 0 342 90.5t218 253t74 369.5q0 206 -78.5 361t-225 241t-339.5 86q-360 0 -513.5 -213.5t-153.5 -490.5z" />
    <glyph glyph-name="seven" unicode="7" horiz-adv-x="2523" 
d="M152 2695v344h2220v-278q-538 -591 -844 -1364q-149 -372 -219 -671.5t-113 -725.5h-434q29 247 77.5 469t120 445.5t166.5 449.5q321 755 844 1331h-1818z" />
    <glyph glyph-name="eight" unicode="8" horiz-adv-x="2527" 
d="M1266 -45q-354 0 -584.5 127.5t-335 333t-104.5 444.5q0 196 70.5 357.5t196 271t286.5 158.5q-146 54 -244.5 159t-146.5 238.5t-48 269.5q0 138 50 274t158 248.5t284 180t418 67.5q281 0 486.5 -98t312 -273t106.5 -399q0 -218 -108 -401t-326 -266
q244 -72 396.5 -283t152.5 -504q0 -242 -101 -446.5t-330 -331.5t-589 -127zM1266 279q123 0 265 47.5t251.5 182.5t109.5 372q0 168 -68.5 303.5t-209 213t-348.5 77.5q-211 0 -352 -78t-210 -213t-69 -303q0 -234 111.5 -370t256 -184t263.5 -48zM1266 1790
q247 0 389.5 136.5t142.5 375.5q0 285 -178 370t-354 85q-175 0 -356 -85.5t-181 -369.5q0 -235 138.5 -373.5t398.5 -138.5z" />
    <glyph glyph-name="nine" unicode="9" horiz-adv-x="2523" 
d="M238 659h368q42 -176 191.5 -280.5t382.5 -104.5q702 0 753 1082h-20q-119 -170 -324.5 -247t-421.5 -77q-294 0 -514.5 132t-338 364.5t-117.5 519.5q0 453 205.5 684t434.5 291.5t396 60.5q215 0 395.5 -47t340.5 -199t259 -465.5t99 -820.5q0 -515 -114 -843
t-289.5 -490.5t-364.5 -217t-383 -54.5q-340 0 -590.5 160t-347.5 552zM1892 2060q0 314 -178.5 505.5t-492.5 191.5q-304 0 -469.5 -193t-165.5 -520q0 -199 79 -355t225.5 -242.5t338.5 -86.5q325 0 494 197t169 503z" />
    <glyph glyph-name="colon" unicode=":" horiz-adv-x="1348" 
d="M459 1733v475h430v-475h-430zM459 0v475h430v-475h-430z" />
    <glyph glyph-name="semicolon" unicode=";" horiz-adv-x="1348" 
d="M459 1733v475h430v-475h-430zM459 0v475h430v-622q0 -155 -98.5 -297.5t-331.5 -198.5v237q94 19 155.5 97.5t61.5 173.5v135h-217z" />
    <glyph glyph-name="less" unicode="&#x3c;" horiz-adv-x="2867" 
d="M262 1622l2085 1204l156 -270l-1852 -1069l1852 -1069l-156 -271l-2085 1205v270z" />
    <glyph glyph-name="equal" unicode="=" horiz-adv-x="3039" 
d="M229 2068h2581v-229h-2581v229zM229 1200h2581v-229h-2581v229z" />
    <glyph glyph-name="greater" unicode="&#x3e;" horiz-adv-x="2867" 
d="M2605 1352l-2085 -1205l-155 271l1851 1069l-1851 1069l155 270l2085 -1204v-270z" />
    <glyph glyph-name="question" unicode="?" horiz-adv-x="2380" 
d="M954 0v475h430v-475h-430zM606 2122h-377q0 991 979 991q446 0 694 -215.5t248 -570.5q0 -246 -107 -413.5t-343 -365.5q-116 -96 -187.5 -166.5t-126.5 -174t-55 -236.5v-90h-315q-4 41 -4 118q0 166 44 286.5t107 197.5t164 168q226 192 334 323.5t108 335.5
q0 195 -141 343.5t-424 148.5q-598 0 -598 -680z" />
    <glyph glyph-name="at" unicode="@" horiz-adv-x="4309" 
d="M2953 -111l148 -266q-219 -133 -439.5 -193.5t-507.5 -60.5q-425 0 -775.5 136t-602 391t-383 602.5t-131.5 763.5q0 376 132.5 720t383.5 609t602 414t774 149q647 0 1073.5 -278t623 -711.5t196.5 -902.5q0 -281 -117 -520t-329 -378t-480 -139q-348 0 -430 246h-25
q-89 -172 -259.5 -223t-362.5 -51q-430 0 -655.5 278t-225.5 725q0 282 105 511.5t299 359t444 129.5q440 0 598 -283h25l-25 94v119h406v-1282q0 -187 52 -241t140 -54q168 0 284.5 98t174 260t57.5 351q0 500 -211 864.5t-570.5 552.5t-787.5 188q-440 0 -800 -208.5
t-566 -577t-206 -819.5q0 -495 211.5 -859.5t571 -555.5t789.5 -191q428 0 799 233zM2593 1192q0 301 -100.5 451.5t-207 187.5t-184.5 37q-323 0 -417.5 -231t-94.5 -445q0 -248 111 -458t397 -210q161 0 273 84.5t167.5 235.5t55.5 348z" />
    <glyph glyph-name="A" unicode="A" horiz-adv-x="2707" 
d="M709 786l-287 -786h-438l1151 3039h438l1151 -3039h-438l-291 786h-1286zM819 1130h1065l-532 1496z" />
    <glyph glyph-name="B" unicode="B" horiz-adv-x="3002" 
d="M369 3039h1335q520 0 712.5 -232.5t192.5 -541.5q0 -263 -147 -433.5t-361 -217.5v-12q266 -40 456.5 -225t190.5 -529q0 -848 -1093 -848h-1286v3039zM778 2695v-946h819q222 0 355 68t186 174.5t53 232.5q0 178 -116 324.5t-465 146.5h-832zM778 1405v-1061h844
q195 0 348.5 40.5t252.5 159.5t99 337q0 275 -170.5 399.5t-529.5 124.5h-844z" />
    <glyph glyph-name="C" unicode="C" horiz-adv-x="3105" 
d="M2519 1008h422q-27 -243 -144.5 -488t-400.5 -425.5t-754 -180.5q-239 0 -554.5 86.5t-603 433t-287.5 1032.5q0 292 76.5 649t395.5 683.5t961 326.5q358 0 604.5 -97t386.5 -252t200.5 -327.5t74.5 -347.5h-418q-19 266 -217 473t-631 207q-341 0 -565.5 -165
t-329 -456.5t-104.5 -676.5q0 -238 65 -458t194 -393.5t324 -273.5t445 -100q256 0 445 103t293.5 273.5t121.5 373.5z" />
    <glyph glyph-name="D" unicode="D" horiz-adv-x="3121" 
d="M369 3039h1118q539 0 860.5 -214t451.5 -554t130 -743q0 -522 -161.5 -839.5t-409 -463.5t-497 -185.5t-530.5 -39.5h-962v3039zM778 2695v-2351h570q606 0 876 297.5t270 878.5q0 347 -91.5 581t-242.5 363t-327.5 180t-370.5 51h-684z" />
    <glyph glyph-name="E" unicode="E" horiz-adv-x="2658" 
d="M778 1741h1594v-344h-1594v-1053h1807v-344h-2216v3039h2166v-344h-1757v-954z" />
    <glyph glyph-name="F" unicode="F" horiz-adv-x="2466" 
d="M778 1708h1426v-344h-1426v-1364h-409v3039h2039v-344h-1630v-987z" />
    <glyph glyph-name="G" unicode="G" horiz-adv-x="3215" 
d="M1720 1585h1241v-1585h-315v492h-12q-89 -190 -242.5 -320t-352 -194t-417.5 -64q-305 0 -566 101t-453.5 305t-299 514t-106.5 714q0 360 93.5 654.5t279 503t463.5 320.5t646 112q314 0 546 -87.5t377.5 -231.5t223.5 -319t99 -358h-414q-26 246 -213 451t-627 205
q-349 0 -565.5 -147t-317.5 -358.5t-129 -404t-28 -352.5q0 -256 80.5 -545t312 -511t643.5 -222q324 0 531 145.5t298 371.5t93 466h-869v344z" />
    <glyph glyph-name="H" unicode="H" horiz-adv-x="3084" 
d="M778 1430v-1430h-409v3039h409v-1265h1528v1265h410v-3039h-410v1430h-1528z" />
    <glyph glyph-name="I" unicode="I" horiz-adv-x="1147" 
d="M369 3039h409v-3039h-409v3039z" />
    <glyph glyph-name="J" unicode="J" horiz-adv-x="2257" 
d="M98 1008h410q3 -393 122 -567.5t402 -174.5q184 0 293.5 71t160 234.5t50.5 440.5v2027h410v-1990q0 -451 -118 -700t-316.5 -338t-483.5 -89q-138 0 -280 24.5t-294 114.5t-254 284.5t-102 506.5v156z" />
    <glyph glyph-name="K" unicode="K" horiz-adv-x="2896" 
d="M778 1532l1503 1507h549l-1265 -1249l1347 -1790h-540l-1110 1516l-484 -476v-1040h-409v3039h409v-1507z" />
    <glyph glyph-name="L" unicode="L" horiz-adv-x="2298" 
d="M2322 344v-344h-1953v3039h409v-2695h1544z" />
    <glyph glyph-name="M" unicode="M" horiz-adv-x="3858" 
d="M1765 0l-987 2552h-8l8 -115v-2437h-409v3039h610l950 -2502l950 2502h611v-3039h-410v2437l12 115h-12l-987 -2552h-328z" />
    <glyph glyph-name="N" unicode="N" horiz-adv-x="3215" 
d="M778 2408v-2408h-409v3039h450l1618 -2408v2408h410v-3039h-451z" />
    <glyph glyph-name="O" unicode="O" horiz-adv-x="3293" 
d="M1647 -90q-460 0 -787 194.5t-495 557.5t-168 858q0 365 96 662.5t283.5 510t456.5 324.5t614 112t615.5 -112.5t457 -323.5t282 -507t95.5 -666q0 -371 -95 -668.5t-280.5 -508.5t-457.5 -322t-617 -111zM1647 254q335 0 563.5 158.5t340 444.5t111.5 663q0 374 -95 627
t-246.5 391t-324.5 192.5t-349 54.5q-204 0 -428.5 -83t-406 -365t-181.5 -817q0 -327 91 -613t318 -469.5t607 -183.5z" />
    <glyph glyph-name="P" unicode="P" horiz-adv-x="2777" 
d="M369 3039h1237q1032 0 1032 -872q0 -207 -52 -377t-174 -300t-332.5 -204t-510.5 -74h-791v-1212h-409v3039zM778 2695v-1139h746q381 0 538.5 160.5t157.5 442.5q0 289 -179 412.5t-517 123.5h-746z" />
    <glyph glyph-name="Q" unicode="Q" horiz-adv-x="3297" 
d="M2662 270l344 -381l-229 -208l-360 401q-176 -94 -362 -133t-404 -39q-631 0 -956 307t-411.5 660.5t-86.5 642.5q0 275 68 550t232.5 518t451 392t702.5 149q344 0 615 -112t456 -321.5t282 -509t97 -666.5q0 -343 -92.5 -663t-346.5 -587zM2048 954l344 -385
q274 335 274 951q0 412 -113.5 674t-280 387.5t-326 164.5t-295.5 39q-178 0 -351 -54.5t-324 -193t-246 -391t-95 -626.5q0 -379 109 -663t337 -443.5t570 -159.5q319 0 503 119l-339 377z" />
    <glyph glyph-name="R" unicode="R" horiz-adv-x="2957" 
d="M369 0v3039h1347q221 0 434.5 -46.5t389.5 -227.5t176 -541q0 -289 -145 -493t-371 -261v-12q194 -59 289 -175t120 -258.5t33 -381.5q7 -236 14 -336t30 -170t75 -137h-430q-72 96 -88 198t-23 396q-8 242 -40 381t-155 227t-378 88h-869v-1290h-409zM778 2695v-1065
h910q344 0 475 173t131 376q0 278 -166.5 397t-501.5 119h-848z" />
    <glyph glyph-name="S" unicode="S" horiz-adv-x="2851" 
d="M197 963h417q0 -186 90.5 -345t283 -255.5t482.5 -96.5q434 0 592 173t158 376q0 179 -95 288.5t-221.5 159.5t-297.5 89q-227 47 -478.5 102.5t-428.5 139t-286.5 245t-109.5 418.5q0 237 112 434t368.5 319.5t666.5 122.5q375 0 619.5 -126.5t359 -326t131.5 -431.5
h-393q-19 219 -184 379.5t-545 160.5q-228 0 -390 -67.5t-244.5 -184t-82.5 -260.5q0 -174 105.5 -272t241.5 -138.5t419 -97.5q367 -71 588.5 -142.5t400 -264t178.5 -539.5q0 -340 -252 -620.5t-952 -280.5q-1210 0 -1253 1041z" />
    <glyph glyph-name="T" unicode="T" horiz-adv-x="2499" 
d="M1044 2695h-987v344h2384v-344h-987v-2695h-410v2695z" />
    <glyph glyph-name="U" unicode="U" horiz-adv-x="3023" 
d="M311 3039h410v-1810q0 -243 40.5 -439t214.5 -353.5t535 -157.5q304 0 478.5 116t243.5 325t69 509v1810h410v-1863q0 -475 -162 -751.5t-428.5 -383.5t-610.5 -107q-528 0 -793.5 203.5t-336 467.5t-70.5 571v1863z" />
    <glyph glyph-name="V" unicode="V" horiz-adv-x="2580" 
d="M1290 422l860 2617h447l-1061 -3039h-492l-1060 3039h446z" />
    <glyph glyph-name="W" unicode="W" horiz-adv-x="3879" 
d="M1942 2556l-631 -2556h-520l-807 3039h458l635 -2552l631 2552h467l631 -2552l631 2552h458l-803 -3039h-520z" />
    <glyph glyph-name="X" unicode="X" horiz-adv-x="2634" 
d="M1323 1262l-799 -1262h-524l1065 1556l-1008 1483h508l762 -1192l774 1192h471l-999 -1474l1061 -1565h-516z" />
    <glyph glyph-name="Y" unicode="Y" horiz-adv-x="2630" 
d="M1315 1634l844 1405h487l-1126 -1773v-1266h-410v1266l-1126 1773h487z" />
    <glyph glyph-name="Z" unicode="Z" horiz-adv-x="2576" 
d="M1876 2695h-1667v344h2167v-327l-1786 -2368h1872v-344h-2347v373z" />
    <glyph glyph-name="bracketleft" unicode="[" horiz-adv-x="1606" 
d="M459 3039h917v-270h-532v-3301h532v-271h-917v3842z" />
    <glyph glyph-name="backslash" unicode="\" horiz-adv-x="2871" 
d="M406 3117l258 131l1802 -3363l-258 -131z" />
    <glyph glyph-name="bracketright" unicode="]" horiz-adv-x="1606" 
d="M229 3039h918v-3842h-918v271h533v3301h-533v270z" />
    <glyph glyph-name="asciicircum" unicode="^" horiz-adv-x="2159" 
d="M676 3039h803l438 -598h-320l-520 447l-516 -447h-319z" />
    <glyph glyph-name="underscore" unicode="_" horiz-adv-x="2159" 
d="M0 -803v344h2159v-344h-2159z" />
    <glyph glyph-name="grave" unicode="`" horiz-adv-x="1356" 
d="M639 3039l307 -573h-344l-422 573h459z" />
    <glyph glyph-name="a" unicode="a" horiz-adv-x="2400" 
d="M602 1556h-364q2 160 73 318t280 274.5t585 116.5q373 0 568 -117.5t251.5 -272.5t56.5 -327l-20 -1020q0 -116 38.5 -180.5t190.5 -64.5v-283q-148 -16 -172 -16q-183 0 -276.5 67t-120.5 252q-73 -121 -189.5 -202.5t-262 -121.5t-302.5 -40q-379 0 -578.5 163
t-199.5 476q0 241 126 383.5t358.5 211.5t596.5 105q107 10 193 19.5t134.5 32.5t75.5 81.5t27 169.5q0 209 -132 313.5t-363 104.5q-357 0 -465.5 -144t-108.5 -299zM1663 942l8 188q-37 -37 -93 -53.5t-198 -32.5q-330 -37 -482.5 -69t-252.5 -120.5t-100 -264.5
q0 -142 100.5 -261.5t337.5 -119.5q154 0 302.5 60t256 222.5t121.5 450.5z" />
    <glyph glyph-name="b" unicode="b" horiz-adv-x="2597" 
d="M311 3039h385v-1118q217 365 725 365q435 0 655.5 -234t276 -491t55.5 -455q0 -421 -142 -689t-369 -387.5t-488 -119.5q-459 0 -729 393h-8l4 -303h-365v3039zM668 1114q0 -260 58.5 -442t156.5 -288t211 -151t233 -45q256 0 468 189.5t212 728.5q0 477 -189.5 693
t-465.5 216q-287 0 -485.5 -215.5t-198.5 -685.5z" />
    <glyph glyph-name="c" unicode="c" horiz-adv-x="2384" 
d="M1860 786h368q-26 -210 -117.5 -401.5t-300.5 -327t-548 -135.5q-394 0 -634.5 171t-340 441.5t-99.5 587.5q0 397 201 780.5t852 383.5q455 0 691.5 -224.5t267.5 -545.5h-361q-25 178 -155 340.5t-439 162.5q-266 0 -412 -146.5t-194.5 -345.5t-48.5 -405
q0 -274 79 -484.5t232.5 -327.5t372.5 -117q328 0 449 204.5t137 388.5z" />
    <glyph glyph-name="d" unicode="d" horiz-adv-x="2593" 
d="M1901 3039h380v-3039h-360l4 303h-12q-79 -162 -254 -277.5t-475 -115.5q-336 0 -559.5 160t-330 432t-106.5 604q0 264 59.5 478.5t182 373t309.5 243.5t437 85q508 0 725 -365v1118zM590 1106q0 -340 99 -546t252 -289t325 -83q190 0 340 102t234.5 310t84.5 514
q0 323 -95.5 525t-249 289t-335.5 87q-283 0 -469 -215t-186 -694z" />
    <glyph glyph-name="e" unicode="e" horiz-adv-x="2494" 
d="M1896 639h381q-51 -295 -293 -502t-677 -207q-375 0 -747 214.5t-372 949.5q0 492 185.5 756t424.5 345.5t468 81.5q410 0 642 -178t315 -431.5t83 -520.5q0 -90 -4 -131h-1708q13 -309 165 -562t535 -253q237 0 404.5 123.5t197.5 314.5zM598 1286h1298q-6 166 -54 326
t-185 279.5t-379 119.5q-237 0 -390.5 -107.5t-221.5 -273t-68 -344.5z" />
    <glyph glyph-name="f" unicode="f" horiz-adv-x="1384" 
d="M1327 2208v-271h-483v-1937h-381v1937h-406v271h406v299q0 549 581 549q58 0 283 -17v-282q-176 16 -266 16q-217 0 -217 -303v-262h483z" />
    <glyph glyph-name="g" unicode="g" horiz-adv-x="2605" 
d="M356 -246h377q33 -111 151.5 -217t418.5 -106q367 0 486.5 216.5t119.5 475.5v237q-231 -352 -709 -352q-255 0 -482 110.5t-370 361.5t-143 642q0 515 232.5 839.5t721.5 324.5q300 0 485 -109t277 -276h12l-8 307h369v-2151q0 -213 -82 -415t-304.5 -342t-604.5 -140
q-451 0 -672 166t-275 428zM1286 279q167 0 308.5 70.5t234 260.5t92.5 520q0 470 -191 673.5t-481 203.5q-194 0 -339 -97.5t-224.5 -293t-79.5 -481.5q0 -494 212 -675t468 -181z" />
    <glyph glyph-name="h" unicode="h" horiz-adv-x="2486" 
d="M311 3039h385v-1143q273 373 754 373q444 0 584.5 -244t140.5 -559v-1466h-385v1352q0 265 -80.5 441.5t-382.5 176.5q-248 0 -439.5 -162t-191.5 -604v-1204h-385v3039z" />
    <glyph glyph-name="i" unicode="i" horiz-adv-x="991" 
d="M303 2208h385v-2208h-385v2208zM303 2638v401h385v-401h-385z" />
    <glyph glyph-name="j" unicode="j" horiz-adv-x="1016" 
d="M315 2208h385v-2413q0 -320 -121.5 -467t-402.5 -147q-90 0 -246 16v283q29 -4 82 -4q197 0 250 100.5t53 267.5v2364zM299 2638v401h414v-401h-414z" />
    <glyph glyph-name="k" unicode="k" horiz-adv-x="2273" 
d="M696 1155l1049 1053h455l-869 -852l959 -1356h-447l-774 1118l-373 -368v-750h-385v3039h385v-1884z" />
    <glyph glyph-name="l" unicode="l" horiz-adv-x="1008" 
d="M311 3039h385v-3039h-385v3039z" />
    <glyph glyph-name="m" unicode="m" horiz-adv-x="3785" 
d="M311 2208h365l-4 -336h12q104 175 281 280t407 105q296 0 440 -138.5t191 -299.5q254 438 762 438q452 0 580 -264.5t128 -567.5v-1425h-385v1397q0 577 -422 577q-137 0 -266.5 -52t-222 -200t-92.5 -407v-1315h-385v1393q0 585 -422 585q-101 0 -204 -38.5t-189 -119.5
t-137.5 -207t-51.5 -298v-1315h-385v2208z" />
    <glyph glyph-name="n" unicode="n" horiz-adv-x="2486" 
d="M311 2208h381l-8 -312h12q273 373 754 373q444 0 584.5 -244t140.5 -559v-1466h-385v1352q0 265 -80.5 441.5t-382.5 176.5q-248 0 -439.5 -162t-191.5 -604v-1204h-385v2208z" />
    <glyph glyph-name="o" unicode="o" horiz-adv-x="2540" 
d="M188 1106q0 274 73.5 497.5t214 378t341.5 235.5t453 81t453 -81t342 -236t213.5 -375.5t72.5 -499.5t-72.5 -499t-214 -376t-342 -236.5t-452.5 -80.5q-335 0 -579.5 142t-373.5 412.5t-129 637.5zM590 1106q0 -237 59 -442t212 -340.5t409 -135.5q378 0 529 268.5
t151 649.5t-151 649t-529 268q-258 0 -410 -135t-211 -340t-59 -442z" />
    <glyph glyph-name="p" unicode="p" horiz-adv-x="2593" 
d="M311 2208h365l-4 -303h8q275 393 729 393q302 0 527.5 -141.5t346.5 -412t121 -642.5q0 -381 -125 -647.5t-348 -399.5t-510 -133q-500 0 -725 393v-1118h-385v3011zM668 1094q0 -332 109.5 -534.5t266 -284.5t308.5 -82q260 0 455.5 204.5t195.5 704.5q0 297 -85.5 504
t-239 310t-351.5 103q-165 0 -314.5 -85t-247 -292t-97.5 -548z" />
    <glyph glyph-name="q" unicode="q" horiz-adv-x="2593" 
d="M1917 2208h364v-3011h-385v1114q-235 -389 -725 -389q-323 0 -545 153t-330 419t-108 608q0 373 122 643.5t346.5 411.5t527.5 141q456 0 729 -393h12zM590 1102q0 -500 196 -704.5t459 -204.5q153 0 309 82t263.5 284t107.5 535q0 303 -85.5 512t-234.5 311t-339 102
q-200 0 -352.5 -102.5t-238 -309.5t-85.5 -505z" />
    <glyph glyph-name="r" unicode="r" horiz-adv-x="1602" 
d="M1544 2236v-327q-90 8 -143 8q-185 0 -342 -76t-260 -276t-103 -549v-1016h-385v2208h365l-4 -426h12q72 146 189.5 248t263 154t297.5 52h110z" />
    <glyph glyph-name="s" unicode="s" horiz-adv-x="2195" 
d="M156 655h381q16 -200 167 -325t435 -125q252 0 380 109.5t128 283.5q0 163 -118.5 240t-348.5 129q-151 32 -334.5 72.5t-314.5 107.5t-210 190.5t-79 321.5q0 336 257 475t591 139q325 0 517 -94.5t271.5 -238.5t91.5 -314h-352q-10 138 -117.5 257.5t-398.5 119.5
q-151 0 -315 -60t-164 -268q0 -144 80 -221.5t174.5 -104t367.5 -83.5q279 -58 445 -124.5t258 -188t92 -326.5q0 -159 -60.5 -286.5t-177.5 -217.5t-286.5 -137t-380.5 -47q-293 0 -513.5 90t-340 252t-125.5 374z" />
    <glyph glyph-name="t" unicode="t" horiz-adv-x="1389" 
d="M57 2208h389v651h385v-651h472v-271h-472v-1405q0 -157 40 -230t194 -73q95 0 238 54v-283q-191 -61 -398 -61q-206 0 -307 78.5t-126.5 184.5t-25.5 253v1482h-389v271z" />
    <glyph glyph-name="u" unicode="u" horiz-adv-x="2486" 
d="M2175 0h-377l4 311h-12q-136 -201 -339 -286.5t-415 -85.5q-443 0 -584 244t-141 558v1467h385v-1352q0 -318 101.5 -468t361.5 -150q391 0 511 238t120 528v1204h385v-2208z" />
    <glyph glyph-name="v" unicode="v" horiz-adv-x="2048" 
d="M1032 381l623 1827h409l-823 -2208h-430l-827 2208h409z" />
    <glyph glyph-name="w" unicode="w" horiz-adv-x="3129" 
d="M1569 1765l-463 -1765h-406l-716 2208h393l541 -1770l462 1770h369l463 -1770l536 1770h398l-713 -2208h-401z" />
    <glyph glyph-name="x" unicode="x" horiz-adv-x="2101" 
d="M1049 1389l565 819h426l-774 -1057l835 -1151h-430l-622 909l-623 -909h-426l831 1151l-782 1057h443z" />
    <glyph glyph-name="y" unicode="y" horiz-adv-x="2159" 
d="M393 -799v283q156 -21 193 -21q155 0 220 91t128 282l53 164l-958 2208h458l705 -1786l590 1786h377l-873 -2470q-72 -202 -143.5 -322t-173 -177.5t-260.5 -57.5q-208 0 -316 20z" />
    <glyph glyph-name="z" unicode="z" horiz-adv-x="2032" 
d="M205 2208h1650v-283l-1282 -1655h1344v-270h-1802v270l1319 1667h-1229v271z" />
    <glyph glyph-name="braceleft" unicode="{" horiz-adv-x="2159" 
d="M631 1139v286q385 36 385 586q0 82 -8 238q-9 176 -9 229q0 101 19 210t86 227.5t206.5 201t364.5 90.5v-229q-303 -73 -303 -414q0 -26 2 -70t5.5 -88.5t4.5 -70.5q13 -118 13 -250q0 -187 -47.5 -332.5t-157 -257.5t-295.5 -197v-32q186 -85 295.5 -197t157 -257.5
t47.5 -332.5q0 -132 -13 -250q-3 -57 -7.5 -117t-4.5 -112q0 -341 303 -414v-229q-416 19 -546 244.5t-130 484.5q0 56 9 229q8 156 8 238q0 325 -120 448.5t-265 137.5z" />
    <glyph glyph-name="bar" unicode="|" horiz-adv-x="2154" 
d="M905 -803v4313h344v-4313h-344z" />
    <glyph glyph-name="braceright" unicode="}" horiz-adv-x="2159" 
d="M1528 1425v-286q-245 -20 -315 -215.5t-70 -370.5q0 -82 8 -238q8 -154 8 -229q0 -140 -38 -291t-188 -287t-450 -151v229q303 75 303 414q0 113 -12 229q-12 123 -12 250q0 187 47.5 332.5t157 257.5t295.5 197v32q-273 125 -386.5 312.5t-113.5 474.5q0 127 12 250
q12 117 12 229q0 339 -303 414v229q160 -7 311 -68t258 -221.5t107 -439.5q0 -73 -8 -229t-8 -238q0 -327 119.5 -448t265.5 -138z" />
    <glyph glyph-name="asciitilde" unicode="~" horiz-adv-x="2154" 
d="M1548 3039h299q-83 -246 -193.5 -356.5t-273.5 -110.5q-91 0 -171 23.5t-222 79.5q-114 49 -209 49q-129 0 -180 -127h-291q50 244 180.5 347t266.5 103q130 0 381 -98q158 -61 221 -61q116 0 192 151z" />
    <glyph glyph-name="afii10062" unicode="&#xa1;" horiz-adv-x="2552" 
d="M1409 1212l733 1827h426l-1028 -2498q-103 -252 -226 -381t-249.5 -167t-294.5 -38t-340 45v356q150 -49 287 -49q159 0 280 93.5t199 353.5l-1155 2285h496zM610 3727h324q56 -344 422 -344q374 0 430 344h319q-30 -154 -111 -281.5t-239.5 -209.5t-398.5 -82
q-335 0 -522.5 169t-223.5 404z" />
    <glyph glyph-name="afii10110" unicode="&#xa2;" horiz-adv-x="2159" 
d="M393 -799v283q156 -21 193 -21q155 0 220 91t128 282l53 164l-958 2208h458l705 -1786l590 1786h377l-873 -2470q-72 -202 -143.5 -322t-173 -177.5t-260.5 -57.5q-208 0 -316 20zM393 3039h324q6 -149 119 -246.5t303 -97.5q217 0 318 103.5t108 240.5h319
q-35 -233 -219.5 -403t-525.5 -170q-335 0 -522.5 169t-223.5 404z" />
    <glyph glyph-name="afii10057" unicode="&#xa3;" horiz-adv-x="2257" 
d="M98 1008h410q3 -393 122 -567.5t402 -174.5q184 0 293.5 71t160 234.5t50.5 440.5v2027h410v-1990q0 -451 -118 -700t-316.5 -338t-483.5 -89q-138 0 -280 24.5t-294 114.5t-254 284.5t-102 506.5v156z" />
    <glyph glyph-name="currency" unicode="&#xa4;" horiz-adv-x="3584" 
d="M287 229l483 484q-229 319 -229 721q0 401 229 720l-483 484l286 287l480 -484q310 246 737 246t737 -246l484 484l286 -287l-483 -484q229 -319 229 -720q0 -402 -229 -721l483 -484l-286 -286l-484 483q-310 -246 -737 -246t-737 246l-480 -483zM864 1434
q0 -269 133.5 -482t349 -330.5t443.5 -117.5q227 0 443.5 117.5t351.5 330.5t135 482q0 265 -135.5 479t-351 332t-443.5 118q-261 0 -504 -151q-422 -289 -422 -778z" />
    <glyph glyph-name="afii10050" unicode="&#xa5;" horiz-adv-x="2363" 
d="M778 2695v-2695h-409v3039h1548v688h356l33 -1032h-1528z" />
    <glyph glyph-name="section" unicode="&#xa7;" horiz-adv-x="2515" 
d="M1962 2417h-320q-13 446 -385 446q-148 0 -235.5 -82t-87.5 -229q0 -129 67 -215t162 -135.5t287 -128.5q241 -99 400 -193t272.5 -263t113.5 -429q0 -273 -153.5 -451.5t-374.5 -236.5q262 -93 262 -488q0 -322 -208 -480.5t-550 -158.5q-289 0 -452 122.5t-220 294.5
t-57 353l320 -4q0 -206 100.5 -342.5t304.5 -136.5q156 0 277 72t121 260q0 131 -59.5 211t-140.5 122.5t-263 116.5q-238 99 -346 149.5t-234.5 152.5t-205 255t-78.5 365q0 301 150.5 474t365.5 214q-131 96 -180.5 212.5t-49.5 295.5q0 175 84.5 308.5t242.5 207.5
t370 74q700 0 700 -733zM1442 651q176 55 301 193.5t125 363.5q0 168 -91 288t-264 210.5t-452 185.5q-418 -121 -418 -508q0 -150 54 -256.5t153 -181.5t183 -114.5t409 -180.5z" />
    <glyph glyph-name="afii10023" unicode="&#xa8;" horiz-adv-x="2662" 
d="M815 3351v344h406v-344h-406zM1749 3351v344h405v-344h-405zM778 1741h1594v-344h-1594v-1053h1811v-344h-2220v3039h2171v-344h-1762v-954z" />
    <glyph glyph-name="copyright" unicode="&#xa9;" horiz-adv-x="3498" 
d="M229 1520q0 336 126.5 617t344.5 483.5t491.5 310.5t557.5 108q376 0 728 -190.5t572 -538.5t220 -790q0 -336 -128 -617t-347 -483.5t-492.5 -311t-552.5 -108.5q-284 0 -556.5 108.5t-491 312t-345.5 486t-127 613.5zM516 1520q0 -373 175 -669.5t460 -459t598 -162.5
q272 0 501.5 109.5t393 295.5t251 417t87.5 469q0 241 -88 472t-251 415t-393.5 293.5t-500.5 109.5q-232 0 -452 -90.5t-397.5 -263t-280.5 -412t-103 -524.5zM2392 1290q-83 -545 -627 -545q-282 0 -443.5 132t-219.5 308.5t-58 338.5q0 319 159 567t546 248
q329 0 461.5 -152t144.5 -348h-270q-7 114 -85.5 198.5t-250.5 84.5q-126 0 -266 -113t-140 -485q0 -126 38 -254t133.5 -217.5t254.5 -89.5q167 0 245.5 100.5t90.5 226.5h287z" />
    <glyph glyph-name="afii10053" unicode="&#xaa;" horiz-adv-x="3158" 
d="M2142 1737v-344h-1499q10 -441 158.5 -696.5t372 -353t485.5 -97.5q318 0 508 139.5t267 319t101 352.5h426q-25 -232 -133.5 -489.5t-393 -461.5t-775.5 -204q-427 0 -717.5 142.5t-453 383t-227 526.5t-64.5 598q0 351 112.5 705t432.5 613t892 259q444 0 716.5 -157
t391 -377t146.5 -441h-418q-23 142 -105 284t-265 244.5t-478 102.5q-333 0 -549 -152.5t-316 -392t-106 -503.5h1491z" />
    <glyph glyph-name="guillemotleft" unicode="&#xab;" horiz-adv-x="1999" 
d="M270 1360l648 573v-360l-463 -389l463 -398v-348l-648 566v356zM1032 1352l639 557v-353l-450 -376l450 -398v-356l-639 573v353z" />
    <glyph glyph-name="logicalnot" unicode="&#xac;" horiz-adv-x="2638" 
d="M229 1634h2179v-639h-245v410h-1934v229z" />
    <glyph glyph-name="registered" unicode="&#xae;" horiz-adv-x="3498" 
d="M229 1520q0 442 220 790t572 538.5t728 190.5q284 0 557 -107.5t490.5 -309t345 -485t127.5 -617.5q0 -335 -126.5 -615.5t-344 -483t-491.5 -312t-558 -109.5q-278 0 -551 108.5t-493.5 312t-348 485t-127.5 614.5zM516 1520q0 -238 87.5 -469t252 -417.5t393 -295.5
t500.5 -109q232 0 453 91.5t398.5 264.5t279.5 412t102 523q0 285 -103.5 526t-280.5 412t-397 261.5t-452 90.5q-269 0 -499 -109.5t-394.5 -295t-252 -417t-87.5 -468.5zM1196 774v1520h672q499 0 499 -410q0 -286 -258 -377v-4q197 -55 197 -221q0 -36 -10 -117t-10 -125
q0 -160 106 -266h-295q-82 102 -82 254q0 35 4 95t4 85q0 98 -63 145.5t-252 47.5h-233v-627h-279zM1475 2085v-475h327q173 0 226 82t53 163q0 230 -312 230h-294z" />
    <glyph glyph-name="afii10056" unicode="&#xaf;" horiz-adv-x="1397" 
d="M496 3039h405v-3039h-405v3039zM123 3355v401h463v-401h-463zM815 3355v401h459v-401h-459z" />
    <glyph glyph-name="degree" unicode="&#xb0;" horiz-adv-x="1151" 
d="M160 2626q0 178 128 295.5t290 117.5q166 0 289.5 -117t123.5 -296q0 -183 -124.5 -300.5t-288.5 -117.5q-119 0 -215 60.5t-149.5 159.5t-53.5 198zM360 2626q0 -98 68.5 -158t149.5 -60t147 61.5t66 156.5q0 92 -64.5 152.5t-148.5 60.5q-86 0 -152 -59.5t-66 -153.5z
" />
    <glyph glyph-name="plusminus" unicode="&#xb1;" horiz-adv-x="2638" 
d="M1434 717h-230v602h-975v229h975v758h230v-758h974v-229h-974v-602zM229 229v230h2179v-230h-2179z" />
    <glyph glyph-name="afii10055" unicode="&#xb2;" horiz-adv-x="1147" 
d="M369 3039h409v-3039h-409v3039z" />
    <glyph glyph-name="afii10103" unicode="&#xb3;" horiz-adv-x="991" 
d="M303 2208h385v-2208h-385v2208zM303 2638v401h385v-401h-385z" />
    <glyph glyph-name="afii10098" unicode="&#xb4;" horiz-adv-x="1884" 
d="M700 1937v-1937h-389v2208h1159v573h320l37 -844h-1127z" />
    <glyph glyph-name="mu" unicode="&#xb5;" horiz-adv-x="2523" 
d="M754 311v-1114h-385v3011h385v-1204q0 -249 93.5 -485t414.5 -236q319 0 413 236t94 485v1204h385v-1680q0 -116 39.5 -180.5t190.5 -64.5v-283q-40 -3 -101.5 -9.5t-87.5 -6.5q-116 0 -201.5 19.5t-148 91.5t-76.5 216q-185 -331 -507 -331q-133 0 -271 78t-237 253z
" />
    <glyph glyph-name="paragraph" unicode="&#xb6;" horiz-adv-x="2154" 
d="M889 -803v2409q-209 6 -373 106t-254 262.5t-90 347.5q0 189 90 351.5t253.5 261t373.5 104.5h344v-3842h-344zM1520 -803v3842h344v-3842h-344z" />
    <glyph glyph-name="periodcentered" unicode="&#xb7;" horiz-adv-x="1348" 
d="M459 926v475h430v-475h-430z" />
    <glyph glyph-name="afii10071" unicode="&#xb8;" horiz-adv-x="2494" 
d="M1901 639h380q-56 -268 -277 -488.5t-697 -220.5q-367 0 -743 215t-376 949q0 364 120.5 630.5t364 409.5t597.5 143q395 0 715.5 -227t320.5 -924v-110h-1708q0 -190 66.5 -376t222.5 -312.5t407 -126.5q270 0 418 129t189 309zM598 1286h1303q-23 234 -86 392
t-192.5 245.5t-340.5 87.5q-240 0 -393 -108t-219.5 -271t-71.5 -346zM578 2638v401h401v-401h-401zM1610 2638v401h401v-401h-401z" />
    <glyph glyph-name="afii61352" unicode="&#xb9;" horiz-adv-x="4858" 
d="M778 2408v-2408h-409v3039h450l1618 -2408v2408h410v-3039h-451zM3170 1487q0 198 70.5 381.5t232.5 304.5t414 121q405 0 561 -261t156 -546q0 -324 -128 -505t-291.5 -243.5t-297.5 -62.5q-87 0 -205 32t-235.5 117.5t-197 249.5t-79.5 412zM3506 1487
q0 -242 100.5 -389.5t280.5 -147.5q208 0 294.5 172.5t86.5 364.5q0 189 -86.5 360.5t-294.5 171.5q-180 0 -280.5 -146.5t-100.5 -385.5zM3228 0v319h1319v-319h-1319z" />
    <glyph glyph-name="afii10101" unicode="&#xba;" horiz-adv-x="2392" 
d="M1589 1282v-270h-1011q8 -493 205.5 -656t441.5 -163q319 0 468 168t175 405l364 4q-18 -314 -234 -581t-769 -267q-1041 0 -1041 1163q0 512 177.5 778.5t402.5 342t449 75.5q265 0 453 -66.5t299 -176t165.5 -243.5t69.5 -279h-357q-10 160 -100.5 272.5t-240.5 169.5
t-326 57q-135 0 -265 -57.5t-226.5 -221t-106.5 -454.5h1007z" />
    <glyph glyph-name="guillemotright" unicode="&#xbb;" horiz-adv-x="1999" 
d="M963 1348v-353l-635 -569v352l446 393l-446 381v357zM1729 1360v-356l-652 -566v348l463 394l-463 393v364z" />
    <glyph glyph-name="afii10105" unicode="&#xbc;" horiz-adv-x="1016" 
d="M315 2208h385v-2413q0 -320 -121.5 -467t-402.5 -147q-90 0 -246 16v283q29 -4 82 -4q197 0 250 100.5t53 267.5v2364zM299 2638v401h414v-401h-414z" />
    <glyph glyph-name="afii10054" unicode="&#xbd;" horiz-adv-x="2851" 
d="M197 963h417q0 -186 90.5 -345t283 -255.5t482.5 -96.5q434 0 592 173t158 376q0 179 -95 288.5t-221.5 159.5t-297.5 89q-227 47 -478.5 102.5t-428.5 139t-286.5 245t-109.5 418.5q0 237 112 434t368.5 319.5t666.5 122.5q375 0 619.5 -126.5t359 -326t131.5 -431.5
h-393q-19 219 -184 379.5t-545 160.5q-228 0 -390 -67.5t-244.5 -184t-82.5 -260.5q0 -174 105.5 -272t241.5 -138.5t419 -97.5q367 -71 588.5 -142.5t400 -264t178.5 -539.5q0 -340 -252 -620.5t-952 -280.5q-1210 0 -1253 1041z" />
    <glyph glyph-name="afii10102" unicode="&#xbe;" horiz-adv-x="2195" 
d="M156 655h381q16 -200 167 -325t435 -125q252 0 380 109.5t128 283.5q0 163 -118.5 240t-348.5 129q-151 32 -334.5 72.5t-314.5 107.5t-210 190.5t-79 321.5q0 336 257 475t591 139q325 0 517 -94.5t271.5 -238.5t91.5 -314h-352q-10 138 -117.5 257.5t-398.5 119.5
q-151 0 -315 -60t-164 -268q0 -144 80 -221.5t174.5 -104t367.5 -83.5q279 -58 445 -124.5t258 -188t92 -326.5q0 -159 -60.5 -286.5t-177.5 -217.5t-286.5 -137t-380.5 -47q-293 0 -513.5 90t-340 252t-125.5 374z" />
    <glyph glyph-name="afii10104" unicode="&#xbf;" horiz-adv-x="1257" 
d="M434 2208h389v-2208h-389v2208zM123 2638v401h401v-401h-401zM733 2638v401h402v-401h-402z" />
    <glyph glyph-name="afii10017" unicode="&#xc0;" horiz-adv-x="2707" 
d="M709 786l-287 -786h-438l1151 3039h438l1151 -3039h-438l-291 786h-1286zM819 1130h1065l-532 1496z" />
    <glyph glyph-name="afii10017" unicode="&#x410;" horiz-adv-x="2707" 
d="M709 786l-287 -786h-438l1151 3039h438l1151 -3039h-438l-291 786h-1286zM819 1130h1065l-532 1496z" />
    <glyph glyph-name="afii10018" unicode="&#xc1;" horiz-adv-x="2908" 
d="M778 2695v-909h934q307 0 512.5 -80t315 -209.5t153 -285.5t43.5 -330q0 -350 -223 -617.5t-797 -267.5l-1347 4v3039h2158v-344h-1749zM778 1442v-1098h852q680 0 680 533q0 565 -680 565h-852z" />
    <glyph glyph-name="afii10018" unicode="&#x411;" horiz-adv-x="2908" 
d="M778 2695v-909h934q307 0 512.5 -80t315 -209.5t153 -285.5t43.5 -330q0 -350 -223 -617.5t-797 -267.5l-1347 4v3039h2158v-344h-1749zM778 1442v-1098h852q680 0 680 533q0 565 -680 565h-852z" />
    <glyph glyph-name="afii10019" unicode="&#xc2;" horiz-adv-x="3002" 
d="M369 3039h1335q520 0 712.5 -232.5t192.5 -541.5q0 -263 -147 -433.5t-361 -217.5v-12q266 -40 456.5 -225t190.5 -529q0 -848 -1093 -848h-1286v3039zM778 2695v-946h819q222 0 355 68t186 174.5t53 232.5q0 178 -116 324.5t-465 146.5h-832zM778 1405v-1061h844
q195 0 348.5 40.5t252.5 159.5t99 337q0 275 -170.5 399.5t-529.5 124.5h-844z" />
    <glyph glyph-name="afii10019" unicode="&#x412;" horiz-adv-x="3002" 
d="M369 3039h1335q520 0 712.5 -232.5t192.5 -541.5q0 -263 -147 -433.5t-361 -217.5v-12q266 -40 456.5 -225t190.5 -529q0 -848 -1093 -848h-1286v3039zM778 2695v-946h819q222 0 355 68t186 174.5t53 232.5q0 178 -116 324.5t-465 146.5h-832zM778 1405v-1061h844
q195 0 348.5 40.5t252.5 159.5t99 337q0 275 -170.5 399.5t-529.5 124.5h-844z" />
    <glyph glyph-name="afii10020" unicode="&#xc3;" horiz-adv-x="2363" 
d="M778 2695v-2695h-409v3039h1937v-344h-1528z" />
    <glyph glyph-name="afii10020" unicode="&#x413;" horiz-adv-x="2363" 
d="M778 2695v-2695h-409v3039h1937v-344h-1528z" />
    <glyph glyph-name="afii10021" unicode="&#xc4;" horiz-adv-x="3203" 
d="M2707 344h439l-37 -1032h-356v688h-2364v-688h-356l-33 1032h274q167 214 274 450t167 491.5t86.5 525t34.5 602.5l16 626h1855v-2695zM2298 2695h-1041l-12 -377q-12 -410 -35.5 -678t-129 -617t-322.5 -679h1540v2351z" />
    <glyph glyph-name="afii10021" unicode="&#x414;" horiz-adv-x="3203" 
d="M2707 344h439l-37 -1032h-356v688h-2364v-688h-356l-33 1032h274q167 214 274 450t167 491.5t86.5 525t34.5 602.5l16 626h1855v-2695zM2298 2695h-1041l-12 -377q-12 -410 -35.5 -678t-129 -617t-322.5 -679h1540v2351z" />
    <glyph glyph-name="afii10022" unicode="&#xc5;" horiz-adv-x="2658" 
d="M778 1741h1594v-344h-1594v-1053h1807v-344h-2216v3039h2166v-344h-1757v-954z" />
    <glyph glyph-name="afii10022" unicode="&#x415;" horiz-adv-x="2658" 
d="M778 1741h1594v-344h-1594v-1053h1807v-344h-2216v3039h2166v-344h-1757v-954z" />
    <glyph glyph-name="afii10024" unicode="&#xc6;" horiz-adv-x="3944" 
d="M1765 0v1516l-1286 -1516h-495l1400 1630l-1343 1409h487l1237 -1335v1335h410v-1335l1237 1335h487l-1343 -1409l1405 -1630h-500l-1286 1516v-1516h-410z" />
    <glyph glyph-name="afii10024" unicode="&#x416;" horiz-adv-x="3944" 
d="M1765 0v1516l-1286 -1516h-495l1400 1630l-1343 1409h487l1237 -1335v1335h410v-1335l1237 1335h487l-1343 -1409l1405 -1630h-500l-1286 1516v-1516h-410z" />
    <glyph glyph-name="afii10025" unicode="&#xc7;" horiz-adv-x="2916" 
d="M197 934h405q8 -159 79.5 -309.5t262.5 -258.5t522 -108q310 0 480 103t226 236.5t56 258.5q0 569 -696 569h-397v344h360q224 0 417 101t193 383q0 238 -180 377t-520 139q-420 0 -580 -172t-170 -402h-401q17 319 157 511.5t333 278.5t360.5 107t333.5 21
q150 0 324 -27t351 -111t297.5 -254.5t120.5 -439.5q0 -296 -156 -456.5t-368 -206.5v-8q655 -134 655 -795q0 -210 -95 -412t-356 -345.5t-716 -143.5q-461 0 -748.5 135t-414.5 363.5t-135 521.5z" />
    <glyph glyph-name="afii10025" unicode="&#x417;" horiz-adv-x="2916" 
d="M197 934h405q8 -159 79.5 -309.5t262.5 -258.5t522 -108q310 0 480 103t226 236.5t56 258.5q0 569 -696 569h-397v344h360q224 0 417 101t193 383q0 238 -180 377t-520 139q-420 0 -580 -172t-170 -402h-401q17 319 157 511.5t333 278.5t360.5 107t333.5 21
q150 0 324 -27t351 -111t297.5 -254.5t120.5 -439.5q0 -296 -156 -456.5t-368 -206.5v-8q655 -134 655 -795q0 -210 -95 -412t-356 -345.5t-716 -143.5q-461 0 -748.5 135t-414.5 363.5t-135 521.5z" />
    <glyph glyph-name="afii10026" unicode="&#xc8;" horiz-adv-x="3174" 
d="M778 594l1618 2445h410v-3039h-410v2462l-1618 -2462h-409v3039h409v-2445z" />
    <glyph glyph-name="afii10026" unicode="&#x418;" horiz-adv-x="3174" 
d="M778 594l1618 2445h410v-3039h-410v2462l-1618 -2462h-409v3039h409v-2445z" />
    <glyph glyph-name="afii10027" unicode="&#xc9;" horiz-adv-x="3174" 
d="M778 594l1618 2445h410v-3039h-410v2462l-1618 -2462h-409v3039h409v-2445zM844 3727h319q29 -176 130.5 -260t295.5 -84q213 0 314 104.5t108 239.5h324q-31 -155 -112 -282.5t-238.5 -209t-395.5 -81.5q-380 0 -547 180.5t-198 392.5z" />
    <glyph glyph-name="afii10027" unicode="&#x419;" horiz-adv-x="3174" 
d="M778 594l1618 2445h410v-3039h-410v2462l-1618 -2462h-409v3039h409v-2445zM844 3727h319q29 -176 130.5 -260t295.5 -84q213 0 314 104.5t108 239.5h324q-31 -155 -112 -282.5t-238.5 -209t-395.5 -81.5q-380 0 -547 180.5t-198 392.5z" />
    <glyph glyph-name="afii10028" unicode="&#xca;" horiz-adv-x="2724" 
d="M778 1655l1368 1384h500l-1446 -1405l1540 -1634h-536l-1426 1585v-1585h-409v3039h409v-1384z" />
    <glyph glyph-name="afii10028" unicode="&#x41a;" horiz-adv-x="2724" 
d="M778 1655l1368 1384h500l-1446 -1405l1540 -1634h-536l-1426 1585v-1585h-409v3039h409v-1384z" />
    <glyph glyph-name="afii10029" unicode="&#xcb;" horiz-adv-x="3076" 
d="M57 0v356q61 -12 111 -12q236 0 367 195.5t180.5 497.5t58.5 696l29 1306h1904v-3039h-409v2695h-1090l-28 -1048q-8 -314 -37.5 -570.5t-122.5 -512t-283 -418t-495 -162.5q-53 0 -185 16z" />
    <glyph glyph-name="afii10029" unicode="&#x41b;" horiz-adv-x="3076" 
d="M57 0v356q61 -12 111 -12q236 0 367 195.5t180.5 497.5t58.5 696l29 1306h1904v-3039h-409v2695h-1090l-28 -1048q-8 -314 -37.5 -570.5t-122.5 -512t-283 -418t-495 -162.5q-53 0 -185 16z" />
    <glyph glyph-name="afii10030" unicode="&#xcc;" horiz-adv-x="3858" 
d="M1765 0l-987 2552h-8l8 -115v-2437h-409v3039h610l950 -2502l950 2502h611v-3039h-410v2437l12 115h-12l-987 -2552h-328z" />
    <glyph glyph-name="afii10030" unicode="&#x41c;" horiz-adv-x="3858" 
d="M1765 0l-987 2552h-8l8 -115v-2437h-409v3039h610l950 -2502l950 2502h611v-3039h-410v2437l12 115h-12l-987 -2552h-328z" />
    <glyph glyph-name="afii10031" unicode="&#xcd;" horiz-adv-x="3084" 
d="M778 1430v-1430h-409v3039h409v-1265h1528v1265h410v-3039h-410v1430h-1528z" />
    <glyph glyph-name="afii10031" unicode="&#x41d;" horiz-adv-x="3084" 
d="M778 1430v-1430h-409v3039h409v-1265h1528v1265h410v-3039h-410v1430h-1528z" />
    <glyph glyph-name="afii10032" unicode="&#xce;" horiz-adv-x="3293" 
d="M1647 -90q-460 0 -787 194.5t-495 557.5t-168 858q0 365 96 662.5t283.5 510t456.5 324.5t614 112t615.5 -112.5t457 -323.5t282 -507t95.5 -666q0 -371 -95 -668.5t-280.5 -508.5t-457.5 -322t-617 -111zM1647 254q335 0 563.5 158.5t340 444.5t111.5 663q0 374 -95 627
t-246.5 391t-324.5 192.5t-349 54.5q-204 0 -428.5 -83t-406 -365t-181.5 -817q0 -327 91 -613t318 -469.5t607 -183.5z" />
    <glyph glyph-name="afii10032" unicode="&#x41e;" horiz-adv-x="3293" 
d="M1647 -90q-460 0 -787 194.5t-495 557.5t-168 858q0 365 96 662.5t283.5 510t456.5 324.5t614 112t615.5 -112.5t457 -323.5t282 -507t95.5 -666q0 -371 -95 -668.5t-280.5 -508.5t-457.5 -322t-617 -111zM1647 254q335 0 563.5 158.5t340 444.5t111.5 663q0 374 -95 627
t-246.5 391t-324.5 192.5t-349 54.5q-204 0 -428.5 -83t-406 -365t-181.5 -817q0 -327 91 -613t318 -469.5t607 -183.5z" />
    <glyph glyph-name="afii10033" unicode="&#xcf;" horiz-adv-x="3097" 
d="M778 2695v-2695h-409v3039h2359v-3039h-410v2695h-1540z" />
    <glyph glyph-name="afii10033" unicode="&#x41f;" horiz-adv-x="3097" 
d="M778 2695v-2695h-409v3039h2359v-3039h-410v2695h-1540z" />
    <glyph glyph-name="afii10034" unicode="&#xd0;" horiz-adv-x="2777" 
d="M369 3039h1237q1032 0 1032 -872q0 -207 -52 -377t-174 -300t-332.5 -204t-510.5 -74h-791v-1212h-409v3039zM778 2695v-1139h746q381 0 538.5 160.5t157.5 442.5q0 289 -179 412.5t-517 123.5h-746z" />
    <glyph glyph-name="afii10034" unicode="&#x420;" horiz-adv-x="2777" 
d="M369 3039h1237q1032 0 1032 -872q0 -207 -52 -377t-174 -300t-332.5 -204t-510.5 -74h-791v-1212h-409v3039zM778 2695v-1139h746q381 0 538.5 160.5t157.5 442.5q0 289 -179 412.5t-517 123.5h-746z" />
    <glyph glyph-name="afii10035" unicode="&#xd1;" horiz-adv-x="3105" 
d="M2519 1008h422q-27 -243 -144.5 -488t-400.5 -425.5t-754 -180.5q-239 0 -554.5 86.5t-603 433t-287.5 1032.5q0 292 76.5 649t395.5 683.5t961 326.5q358 0 604.5 -97t386.5 -252t200.5 -327.5t74.5 -347.5h-418q-19 266 -217 473t-631 207q-341 0 -565.5 -165
t-329 -456.5t-104.5 -676.5q0 -238 65 -458t194 -393.5t324 -273.5t445 -100q256 0 445 103t293.5 273.5t121.5 373.5z" />
    <glyph glyph-name="afii10035" unicode="&#x421;" horiz-adv-x="3105" 
d="M2519 1008h422q-27 -243 -144.5 -488t-400.5 -425.5t-754 -180.5q-239 0 -554.5 86.5t-603 433t-287.5 1032.5q0 292 76.5 649t395.5 683.5t961 326.5q358 0 604.5 -97t386.5 -252t200.5 -327.5t74.5 -347.5h-418q-19 266 -217 473t-631 207q-341 0 -565.5 -165
t-329 -456.5t-104.5 -676.5q0 -238 65 -458t194 -393.5t324 -273.5t445 -100q256 0 445 103t293.5 273.5t121.5 373.5z" />
    <glyph glyph-name="afii10036" unicode="&#xd2;" horiz-adv-x="2499" 
d="M1044 2695h-987v344h2384v-344h-987v-2695h-410v2695z" />
    <glyph glyph-name="afii10036" unicode="&#x422;" horiz-adv-x="2499" 
d="M1044 2695h-987v344h2384v-344h-987v-2695h-410v2695z" />
    <glyph glyph-name="afii10037" unicode="&#xd3;" horiz-adv-x="2552" 
d="M1409 1212l733 1827h426l-1028 -2498q-103 -252 -226 -381t-249.5 -167t-294.5 -38t-340 45v356q150 -49 287 -49q159 0 280 93.5t199 353.5l-1155 2285h496z" />
    <glyph glyph-name="afii10037" unicode="&#x423;" horiz-adv-x="2552" 
d="M1409 1212l733 1827h426l-1028 -2498q-103 -252 -226 -381t-249.5 -167t-294.5 -38t-340 45v356q150 -49 287 -49q159 0 280 93.5t199 353.5l-1155 2285h496z" />
    <glyph glyph-name="afii10038" unicode="&#xd4;" horiz-adv-x="3867" 
d="M1729 -115v459h-168q-289 0 -597.5 89.5t-544 358t-235.5 756.5q0 377 143.5 622.5t364 371.5t442.5 168.5t427 42.5h168v458h409v-458h168q297 0 603.5 -88t539.5 -356t233 -761q0 -395 -158.5 -643.5t-390.5 -368.5t-446 -156t-381 -36h-168v-459h-409zM1729 664v1769
h-115q-604 0 -804 -271.5t-200 -613.5q0 -214 67.5 -406.5t290.5 -335t646 -142.5h115zM2138 664h115q1003 0 1003 884q0 371 -163 567t-384 257t-456 61h-115v-1769z" />
    <glyph glyph-name="afii10038" unicode="&#x424;" horiz-adv-x="3867" 
d="M1729 -115v459h-168q-289 0 -597.5 89.5t-544 358t-235.5 756.5q0 377 143.5 622.5t364 371.5t442.5 168.5t427 42.5h168v458h409v-458h168q297 0 603.5 -88t539.5 -356t233 -761q0 -395 -158.5 -643.5t-390.5 -368.5t-446 -156t-381 -36h-168v-459h-409zM1729 664v1769
h-115q-604 0 -804 -271.5t-200 -613.5q0 -214 67.5 -406.5t290.5 -335t646 -142.5h115zM2138 664h115q1003 0 1003 884q0 371 -163 567t-384 257t-456 61h-115v-1769z" />
    <glyph glyph-name="afii10039" unicode="&#xd5;" horiz-adv-x="2634" 
d="M1323 1262l-799 -1262h-524l1065 1556l-1008 1483h508l762 -1192l774 1192h471l-999 -1474l1061 -1565h-516z" />
    <glyph glyph-name="afii10039" unicode="&#x425;" horiz-adv-x="2634" 
d="M1323 1262l-799 -1262h-524l1065 1556l-1008 1483h508l762 -1192l774 1192h471l-999 -1474l1061 -1565h-516z" />
    <glyph glyph-name="afii10040" unicode="&#xd6;" horiz-adv-x="3211" 
d="M778 344h1540v2695h410v-2695h426l-33 -1032h-356v688h-2396v3039h409v-2695z" />
    <glyph glyph-name="afii10040" unicode="&#x426;" horiz-adv-x="3211" 
d="M778 344h1540v2695h410v-2695h426l-33 -1032h-356v688h-2396v3039h409v-2695z" />
    <glyph glyph-name="afii10041" unicode="&#xd7;" horiz-adv-x="2761" 
d="M254 3039h410v-889q0 -220 69.5 -330.5t222.5 -148t437 -37.5q195 0 589 29v1376h410v-3039h-410v1319q-504 -29 -667 -29q-380 0 -604.5 58.5t-340.5 231t-116 505.5v954z" />
    <glyph glyph-name="afii10041" unicode="&#x427;" horiz-adv-x="2761" 
d="M254 3039h410v-889q0 -220 69.5 -330.5t222.5 -148t437 -37.5q195 0 589 29v1376h410v-3039h-410v1319q-504 -29 -667 -29q-380 0 -604.5 58.5t-340.5 231t-116 505.5v954z" />
    <glyph glyph-name="afii10042" unicode="&#xd8;" horiz-adv-x="4424" 
d="M778 344h1229v2695h410v-2695h1228v2695h410v-3039h-3686v3039h409v-2695z" />
    <glyph glyph-name="afii10042" unicode="&#x428;" horiz-adv-x="4424" 
d="M778 344h1229v2695h410v-2695h1228v2695h410v-3039h-3686v3039h409v-2695z" />
    <glyph glyph-name="afii10043" unicode="&#xd9;" horiz-adv-x="4563" 
d="M778 344h1229v2695h410v-2695h1228v2695h410v-2695h451l-37 -1032h-357v688h-3743v3039h409v-2695z" />
    <glyph glyph-name="afii10043" unicode="&#x429;" horiz-adv-x="4563" 
d="M778 344h1229v2695h410v-2695h1228v2695h410v-2695h451l-37 -1032h-357v688h-3743v3039h409v-2695z" />
    <glyph glyph-name="afii10044" unicode="&#xda;" horiz-adv-x="3555" 
d="M1438 3039v-1237h872q205 0 426 -66t393 -270t172 -577q0 -291 -110 -474t-272.5 -272t-319 -116t-289.5 -27h-1282v2695h-659v344h1069zM1438 1458v-1114h823q122 0 260 41t246 165t108 351q0 557 -667 557h-770z" />
    <glyph glyph-name="afii10044" unicode="&#x42a;" horiz-adv-x="3555" 
d="M1438 3039v-1237h872q205 0 426 -66t393 -270t172 -577q0 -291 -110 -474t-272.5 -272t-319 -116t-289.5 -27h-1282v2695h-659v344h1069zM1438 1458v-1114h823q122 0 260 41t246 165t108 351q0 557 -667 557h-770z" />
    <glyph glyph-name="afii10045" unicode="&#xdb;" horiz-adv-x="3727" 
d="M778 3039v-1237h877q154 0 369 -49.5t416.5 -253t201.5 -610.5q0 -497 -297 -693t-690 -196h-1286v3039h409zM778 1458v-1114h819q244 0 431.5 129t187.5 428q0 160 -64.5 284.5t-214 198.5t-389.5 74h-770zM2949 3039h410v-3039h-410v3039z" />
    <glyph glyph-name="afii10045" unicode="&#x42b;" horiz-adv-x="3727" 
d="M778 3039v-1237h877q154 0 369 -49.5t416.5 -253t201.5 -610.5q0 -497 -297 -693t-690 -196h-1286v3039h409zM778 1458v-1114h819q244 0 431.5 129t187.5 428q0 160 -64.5 284.5t-214 198.5t-389.5 74h-770zM2949 3039h410v-3039h-410v3039z" />
    <glyph glyph-name="afii10046" unicode="&#xdc;" horiz-adv-x="2781" 
d="M778 3039v-1237h873q205 0 426 -66t393 -270t172 -577q0 -291 -110 -474t-272.5 -272t-319 -116t-289.5 -27h-1282v3039h409zM778 1458v-1114h824q122 0 260 41t246 165t108 351q0 557 -668 557h-770z" />
    <glyph glyph-name="afii10046" unicode="&#x42c;" horiz-adv-x="2781" 
d="M778 3039v-1237h873q205 0 426 -66t393 -270t172 -577q0 -291 -110 -474t-272.5 -272t-319 -116t-289.5 -27h-1282v3039h409zM778 1458v-1114h824q122 0 260 41t246 165t108 351q0 557 -668 557h-770z" />
    <glyph glyph-name="afii10047" unicode="&#xdd;" horiz-adv-x="3138" 
d="M659 2154h-417q18 173 92 343t220.5 313.5t380 231t556.5 87.5q578 0 901.5 -261.5t436 -616.5t112.5 -699q0 -362 -97.5 -726.5t-417 -644t-919.5 -279.5q-358 0 -608.5 116t-397 295t-215.5 370.5t-89 373.5h421q25 -200 124 -384t294.5 -305.5t487.5 -121.5
q545 0 764 342t219 809h-1434v344h1434q-35 435 -196.5 667t-363.5 304.5t-419 72.5q-241 0 -430.5 -78.5t-303 -222t-135.5 -330.5z" />
    <glyph glyph-name="afii10047" unicode="&#x42d;" horiz-adv-x="3138" 
d="M659 2154h-417q18 173 92 343t220.5 313.5t380 231t556.5 87.5q578 0 901.5 -261.5t436 -616.5t112.5 -699q0 -362 -97.5 -726.5t-417 -644t-919.5 -279.5q-358 0 -608.5 116t-397 295t-215.5 370.5t-89 373.5h421q25 -200 124 -384t294.5 -305.5t487.5 -121.5
q545 0 764 342t219 809h-1434v344h1434q-35 435 -196.5 667t-363.5 304.5t-419 72.5q-241 0 -430.5 -78.5t-303 -222t-135.5 -330.5z" />
    <glyph glyph-name="afii10048" unicode="&#xde;" horiz-adv-x="4313" 
d="M778 1769h455q15 244 99.5 478t254.5 435.5t440.5 324t634.5 122.5q507 0 834 -228t473.5 -594t146.5 -787q0 -287 -86.5 -641t-411.5 -661.5t-956 -307.5q-415 0 -698 142.5t-441 370.5t-227 484.5t-79 517.5h-439v-1425h-409v3039h409v-1270zM2666 254q289 0 490 109
t316 293.5t162.5 404t47.5 459.5q0 376 -94.5 628t-246 390t-324.5 192.5t-351 54.5q-197 0 -422.5 -83.5t-409 -365t-183.5 -816.5q0 -377 111.5 -663t340 -444.5t563.5 -158.5z" />
    <glyph glyph-name="afii10048" unicode="&#x42e;" horiz-adv-x="4313" 
d="M778 1769h455q15 244 99.5 478t254.5 435.5t440.5 324t634.5 122.5q507 0 834 -228t473.5 -594t146.5 -787q0 -287 -86.5 -641t-411.5 -661.5t-956 -307.5q-415 0 -698 142.5t-441 370.5t-227 484.5t-79 517.5h-439v-1425h-409v3039h409v-1270zM2666 254q289 0 490 109
t316 293.5t162.5 404t47.5 459.5q0 376 -94.5 628t-246 390t-324.5 192.5t-351 54.5q-197 0 -422.5 -83.5t-409 -365t-183.5 -816.5q0 -377 111.5 -663t340 -444.5t563.5 -158.5z" />
    <glyph glyph-name="afii10049" unicode="&#xdf;" horiz-adv-x="2970" 
d="M2306 1208h-692l-742 -1208h-503l823 1249q-119 13 -246.5 51t-261 131.5t-224.5 267t-91 431.5q0 246 94 449.5t327.5 331.5t626.5 128h1299v-3039h-410v1208zM2306 2695h-856q-382 0 -523 -175.5t-141 -393.5q0 -255 162.5 -414.5t558.5 -159.5h799v1143z" />
    <glyph glyph-name="afii10049" unicode="&#x42f;" horiz-adv-x="2970" 
d="M2306 1208h-692l-742 -1208h-503l823 1249q-119 13 -246.5 51t-261 131.5t-224.5 267t-91 431.5q0 246 94 449.5t327.5 331.5t626.5 128h1299v-3039h-410v1208zM2306 2695h-856q-382 0 -523 -175.5t-141 -393.5q0 -255 162.5 -414.5t558.5 -159.5h799v1143z" />
    <glyph glyph-name="afii10065" unicode="&#xe0;" horiz-adv-x="2400" 
d="M602 1556h-364q2 160 73 318t280 274.5t585 116.5q373 0 568 -117.5t251.5 -272.5t56.5 -327l-20 -1020q0 -116 38.5 -180.5t190.5 -64.5v-283q-148 -16 -172 -16q-183 0 -276.5 67t-120.5 252q-73 -121 -189.5 -202.5t-262 -121.5t-302.5 -40q-379 0 -578.5 163
t-199.5 476q0 241 126 383.5t358.5 211.5t596.5 105q107 10 193 19.5t134.5 32.5t75.5 81.5t27 169.5q0 209 -132 313.5t-363 104.5q-357 0 -465.5 -144t-108.5 -299zM1663 942l8 188q-37 -37 -93 -53.5t-198 -32.5q-330 -37 -482.5 -69t-252.5 -120.5t-100 -264.5
q0 -142 100.5 -261.5t337.5 -119.5q154 0 302.5 60t256 222.5t121.5 450.5z" />
    <glyph glyph-name="afii10065" unicode="&#x430;" horiz-adv-x="2400" 
d="M602 1556h-364q2 160 73 318t280 274.5t585 116.5q373 0 568 -117.5t251.5 -272.5t56.5 -327l-20 -1020q0 -116 38.5 -180.5t190.5 -64.5v-283q-148 -16 -172 -16q-183 0 -276.5 67t-120.5 252q-73 -121 -189.5 -202.5t-262 -121.5t-302.5 -40q-379 0 -578.5 163
t-199.5 476q0 241 126 383.5t358.5 211.5t596.5 105q107 10 193 19.5t134.5 32.5t75.5 81.5t27 169.5q0 209 -132 313.5t-363 104.5q-357 0 -465.5 -144t-108.5 -299zM1663 942l8 188q-37 -37 -93 -53.5t-198 -32.5q-330 -37 -482.5 -69t-252.5 -120.5t-100 -264.5
q0 -142 100.5 -261.5t337.5 -119.5q154 0 302.5 60t256 222.5t121.5 450.5z" />
    <glyph glyph-name="afii10066" unicode="&#xe1;" horiz-adv-x="2650" 
d="M1946 3183h323q-7 -199 -125 -306t-267 -142.5t-349 -55.5q-313 -35 -508.5 -104t-333 -269.5t-158.5 -589.5h13q225 488 852 488q340 0 577 -142t356 -398t119 -595q0 -186 -50 -381t-172 -370.5t-336 -285.5t-523 -110q-163 0 -339 44.5t-354 191t-297.5 453
t-119.5 790.5q0 533 102 853t280.5 471.5t395.5 205t590 92.5q165 17 233 54.5t91 105.5zM664 1061q0 -316 150.5 -592t541.5 -276q251 0 405 118t218.5 307.5t64.5 421.5q0 348 -146 620.5t-542 272.5q-357 0 -524.5 -241t-167.5 -631z" />
    <glyph glyph-name="afii10066" unicode="&#x431;" horiz-adv-x="2650" 
d="M1946 3183h323q-7 -199 -125 -306t-267 -142.5t-349 -55.5q-313 -35 -508.5 -104t-333 -269.5t-158.5 -589.5h13q225 488 852 488q340 0 577 -142t356 -398t119 -595q0 -186 -50 -381t-172 -370.5t-336 -285.5t-523 -110q-163 0 -339 44.5t-354 191t-297.5 453
t-119.5 790.5q0 533 102 853t280.5 471.5t395.5 205t590 92.5q165 17 233 54.5t91 105.5zM664 1061q0 -316 150.5 -592t541.5 -276q251 0 405 118t218.5 307.5t64.5 421.5q0 348 -146 620.5t-542 272.5q-357 0 -524.5 -241t-167.5 -631z" />
    <glyph glyph-name="afii10067" unicode="&#xe2;" horiz-adv-x="2343" 
d="M311 2208h1053q696 0 696 -529q0 -214 -118.5 -345t-278.5 -171v-12q483 -103 483 -578q0 -250 -133 -378t-302 -161.5t-359 -33.5h-1041v2208zM696 1937v-651h529q159 0 304.5 66t145.5 270q0 315 -434 315h-545zM696 1016v-746h557q496 0 496 336q0 410 -508 410h-545z
" />
    <glyph glyph-name="afii10067" unicode="&#x432;" horiz-adv-x="2343" 
d="M311 2208h1053q696 0 696 -529q0 -214 -118.5 -345t-278.5 -171v-12q483 -103 483 -578q0 -250 -133 -378t-302 -161.5t-359 -33.5h-1041v2208zM696 1937v-651h529q159 0 304.5 66t145.5 270q0 315 -434 315h-545zM696 1016v-746h557q496 0 496 336q0 410 -508 410h-545z
" />
    <glyph glyph-name="afii10068" unicode="&#xe3;" horiz-adv-x="1880" 
d="M696 1937v-1937h-385v2208h1512v-271h-1127z" />
    <glyph glyph-name="afii10068" unicode="&#x433;" horiz-adv-x="1880" 
d="M696 1937v-1937h-385v2208h1512v-271h-1127z" />
    <glyph glyph-name="afii10069" unicode="&#xe4;" horiz-adv-x="2617" 
d="M0 270h279q360 517 360 1565l-4 373h1585v-1938h381l-33 -843h-319v573h-1893v-573h-323zM1835 1937h-840l-4 -307q-13 -929 -311 -1360h1155v1667z" />
    <glyph glyph-name="afii10069" unicode="&#x434;" horiz-adv-x="2617" 
d="M0 270h279q360 517 360 1565l-4 373h1585v-1938h381l-33 -843h-319v573h-1893v-573h-323zM1835 1937h-840l-4 -307q-13 -929 -311 -1360h1155v1667z" />
    <glyph glyph-name="afii10070" unicode="&#xe5;" horiz-adv-x="2494" 
d="M1896 639h381q-51 -295 -293 -502t-677 -207q-375 0 -747 214.5t-372 949.5q0 492 185.5 756t424.5 345.5t468 81.5q410 0 642 -178t315 -431.5t83 -520.5q0 -90 -4 -131h-1708q13 -309 165 -562t535 -253q237 0 404.5 123.5t197.5 314.5zM598 1286h1298q-6 166 -54 326
t-185 279.5t-379 119.5q-237 0 -390.5 -107.5t-221.5 -273t-68 -344.5z" />
    <glyph glyph-name="afii10070" unicode="&#x435;" horiz-adv-x="2494" 
d="M1896 639h381q-51 -295 -293 -502t-677 -207q-375 0 -747 214.5t-372 949.5q0 492 185.5 756t424.5 345.5t468 81.5q410 0 642 -178t315 -431.5t83 -520.5q0 -90 -4 -131h-1708q13 -309 165 -562t535 -253q237 0 404.5 123.5t197.5 314.5zM598 1286h1298q-6 166 -54 326
t-185 279.5t-379 119.5q-237 0 -390.5 -107.5t-221.5 -273t-68 -344.5z" />
    <glyph glyph-name="afii10072" unicode="&#xe6;" horiz-adv-x="3039" 
d="M1327 0l8 1090l-880 -1090h-471l1011 1159l-954 1049h451l843 -1000l-8 1000h385l-8 -1000l844 1000h450l-954 -1049l1012 -1159h-471l-881 1090l8 -1090h-385z" />
    <glyph glyph-name="afii10072" unicode="&#x436;" horiz-adv-x="3039" 
d="M1327 0l8 1090l-880 -1090h-471l1011 1159l-954 1049h451l843 -1000l-8 1000h385l-8 -1000l844 1000h450l-954 -1049l1012 -1159h-471l-881 1090l8 -1090h-385z" />
    <glyph glyph-name="afii10073" unicode="&#xe7;" horiz-adv-x="2249" 
d="M139 676h361q1 -134 73.5 -243.5t205 -172.5t311.5 -63q273 0 423 110.5t150 306.5q0 252 -160.5 325t-339.5 73h-323v270h278q200 0 335.5 68t135.5 272q0 143 -112.5 260t-395.5 117q-250 0 -387.5 -110.5t-140.5 -286.5l-356 -5q14 286 217 479t688 193
q487 0 677.5 -184.5t190.5 -433.5q0 -203 -107.5 -326.5t-269.5 -157.5v-12q116 -20 222 -83t175.5 -183.5t69.5 -298.5q0 -287 -217 -475.5t-721 -188.5q-278 0 -469.5 69t-300.5 179.5t-156.5 237t-56.5 264.5z" />
    <glyph glyph-name="afii10073" unicode="&#x437;" horiz-adv-x="2249" 
d="M139 676h361q1 -134 73.5 -243.5t205 -172.5t311.5 -63q273 0 423 110.5t150 306.5q0 252 -160.5 325t-339.5 73h-323v270h278q200 0 335.5 68t135.5 272q0 143 -112.5 260t-395.5 117q-250 0 -387.5 -110.5t-140.5 -286.5l-356 -5q14 286 217 479t688 193
q487 0 677.5 -184.5t190.5 -433.5q0 -203 -107.5 -326.5t-269.5 -157.5v-12q116 -20 222 -83t175.5 -183.5t69.5 -298.5q0 -287 -217 -475.5t-721 -188.5q-278 0 -469.5 69t-300.5 179.5t-156.5 237t-56.5 264.5z" />
    <glyph glyph-name="afii10074" unicode="&#xe8;" horiz-adv-x="2585" 
d="M696 446l1147 1762h430v-2208h-385v1761l-1147 -1761h-430v2208h385v-1762z" />
    <glyph glyph-name="afii10074" unicode="&#x438;" horiz-adv-x="2585" 
d="M696 446l1147 1762h430v-2208h-385v1761l-1147 -1761h-430v2208h385v-1762z" />
    <glyph glyph-name="afii10075" unicode="&#xe9;" horiz-adv-x="2585" 
d="M696 446l1147 1762h430v-2208h-385v1761l-1147 -1761h-430v2208h385v-1762zM537 3039h319q56 -344 426 -344q212 0 313.5 104.5t108.5 239.5h324q-23 -150 -106.5 -279t-244.5 -211.5t-395 -82.5q-342 0 -525.5 168t-219.5 405z" />
    <glyph glyph-name="afii10075" unicode="&#x439;" horiz-adv-x="2585" 
d="M696 446l1147 1762h430v-2208h-385v1761l-1147 -1761h-430v2208h385v-1762zM537 3039h319q56 -344 426 -344q212 0 313.5 104.5t108.5 239.5h324q-23 -150 -106.5 -279t-244.5 -211.5t-395 -82.5q-342 0 -525.5 168t-219.5 405z" />
    <glyph glyph-name="afii10076" unicode="&#xea;" horiz-adv-x="2126" 
d="M692 1212l946 996h447l-1036 -1028l1093 -1180h-459l-991 1102l4 -1102h-385v2208h385z" />
    <glyph glyph-name="afii10076" unicode="&#x43a;" horiz-adv-x="2126" 
d="M692 1212l946 996h447l-1036 -1028l1093 -1180h-459l-991 1102l4 -1102h-385v2208h385z" />
    <glyph glyph-name="afii10077" unicode="&#xeb;" horiz-adv-x="2454" 
d="M57 0v283q53 -13 107 -13q188 0 276.5 147t110.5 354t35 605l20 832h1536v-2208h-385v1937h-790l-17 -561q-12 -369 -27.5 -563.5t-78 -390t-206.5 -317t-388 -121.5q-100 0 -193 16z" />
    <glyph glyph-name="afii10077" unicode="&#x43b;" horiz-adv-x="2454" 
d="M57 0v283q53 -13 107 -13q188 0 276.5 147t110.5 354t35 605l20 832h1536v-2208h-385v1937h-790l-17 -561q-12 -369 -27.5 -563.5t-78 -390t-206.5 -317t-388 -121.5q-100 0 -193 16z" />
    <glyph glyph-name="afii10078" unicode="&#xec;" horiz-adv-x="3117" 
d="M1409 0l-745 1769h-9l9 -114v-1655h-353v2208h496l754 -1794l749 1794h496v-2208h-352v1655l12 114h-12l-746 -1769h-299z" />
    <glyph glyph-name="afii10078" unicode="&#x43c;" horiz-adv-x="3117" 
d="M1409 0l-745 1769h-9l9 -114v-1655h-353v2208h496l754 -1794l749 1794h496v-2208h-352v1655l12 114h-12l-746 -1769h-299z" />
    <glyph glyph-name="afii10079" unicode="&#xed;" horiz-adv-x="2482" 
d="M696 1028v-1028h-385v2208h385v-910h1090v910h385v-2208h-385v1028h-1090z" />
    <glyph glyph-name="afii10079" unicode="&#x43d;" horiz-adv-x="2482" 
d="M696 1028v-1028h-385v2208h385v-910h1090v910h385v-2208h-385v1028h-1090z" />
    <glyph glyph-name="afii10080" unicode="&#xee;" horiz-adv-x="2540" 
d="M188 1106q0 274 73.5 497.5t214 378t341.5 235.5t453 81t453 -81t342 -236t213.5 -375.5t72.5 -499.5t-72.5 -499t-214 -376t-342 -236.5t-452.5 -80.5q-335 0 -579.5 142t-373.5 412.5t-129 637.5zM590 1106q0 -237 59 -442t212 -340.5t409 -135.5q378 0 529 268.5
t151 649.5t-151 649t-529 268q-258 0 -410 -135t-211 -340t-59 -442z" />
    <glyph glyph-name="afii10080" unicode="&#x43e;" horiz-adv-x="2540" 
d="M188 1106q0 274 73.5 497.5t214 378t341.5 235.5t453 81t453 -81t342 -236t213.5 -375.5t72.5 -499.5t-72.5 -499t-214 -376t-342 -236.5t-452.5 -80.5q-335 0 -579.5 142t-373.5 412.5t-129 637.5zM590 1106q0 -237 59 -442t212 -340.5t409 -135.5q378 0 529 268.5
t151 649.5t-151 649t-529 268q-258 0 -410 -135t-211 -340t-59 -442z" />
    <glyph glyph-name="afii10081" unicode="&#xef;" horiz-adv-x="2507" 
d="M696 1937v-1937h-385v2208h1884v-2208h-385v1937h-1114z" />
    <glyph glyph-name="afii10081" unicode="&#x43f;" horiz-adv-x="2507" 
d="M696 1937v-1937h-385v2208h1884v-2208h-385v1937h-1114z" />
    <glyph glyph-name="afii10082" unicode="&#xf0;" horiz-adv-x="2593" 
d="M311 2208h365l-4 -303h8q275 393 729 393q302 0 527.5 -141.5t346.5 -412t121 -642.5q0 -381 -125 -647.5t-348 -399.5t-510 -133q-500 0 -725 393v-1118h-385v3011zM668 1094q0 -332 109.5 -534.5t266 -284.5t308.5 -82q260 0 455.5 204.5t195.5 704.5q0 297 -85.5 504
t-239 310t-351.5 103q-165 0 -314.5 -85t-247 -292t-97.5 -548z" />
    <glyph glyph-name="afii10082" unicode="&#x440;" horiz-adv-x="2593" 
d="M311 2208h365l-4 -303h8q275 393 729 393q302 0 527.5 -141.5t346.5 -412t121 -642.5q0 -381 -125 -647.5t-348 -399.5t-510 -133q-500 0 -725 393v-1118h-385v3011zM668 1094q0 -332 109.5 -534.5t266 -284.5t308.5 -82q260 0 455.5 204.5t195.5 704.5q0 297 -85.5 504
t-239 310t-351.5 103q-165 0 -314.5 -85t-247 -292t-97.5 -548z" />
    <glyph glyph-name="afii10083" unicode="&#xf1;" horiz-adv-x="2384" 
d="M1860 786h368q-26 -210 -117.5 -401.5t-300.5 -327t-548 -135.5q-394 0 -634.5 171t-340 441.5t-99.5 587.5q0 397 201 780.5t852 383.5q455 0 691.5 -224.5t267.5 -545.5h-361q-25 178 -155 340.5t-439 162.5q-266 0 -412 -146.5t-194.5 -345.5t-48.5 -405
q0 -274 79 -484.5t232.5 -327.5t372.5 -117q328 0 449 204.5t137 388.5z" />
    <glyph glyph-name="afii10083" unicode="&#x441;" horiz-adv-x="2384" 
d="M1860 786h368q-26 -210 -117.5 -401.5t-300.5 -327t-548 -135.5q-394 0 -634.5 171t-340 441.5t-99.5 587.5q0 397 201 780.5t852 383.5q455 0 691.5 -224.5t267.5 -545.5h-361q-25 178 -155 340.5t-439 162.5q-266 0 -412 -146.5t-194.5 -345.5t-48.5 -405
q0 -274 79 -484.5t232.5 -327.5t372.5 -117q328 0 449 204.5t137 388.5z" />
    <glyph glyph-name="afii10084" unicode="&#xf2;" horiz-adv-x="2019" 
d="M815 1937h-758v271h1905v-271h-758v-1937h-389v1937z" />
    <glyph glyph-name="afii10084" unicode="&#x442;" horiz-adv-x="2019" 
d="M815 1937h-758v271h1905v-271h-758v-1937h-389v1937z" />
    <glyph glyph-name="afii10085" unicode="&#xf3;" horiz-adv-x="2159" 
d="M393 -799v283q156 -21 193 -21q155 0 220 91t128 282l53 164l-958 2208h458l705 -1786l590 1786h377l-873 -2470q-72 -202 -143.5 -322t-173 -177.5t-260.5 -57.5q-208 0 -316 20z" />
    <glyph glyph-name="afii10085" unicode="&#x443;" horiz-adv-x="2159" 
d="M393 -799v283q156 -21 193 -21q155 0 220 91t128 282l53 164l-958 2208h458l705 -1786l590 1786h377l-873 -2470q-72 -202 -143.5 -322t-173 -177.5t-260.5 -57.5q-208 0 -316 20z" />
    <glyph glyph-name="afii10086" unicode="&#xf4;" horiz-adv-x="3441" 
d="M1528 -803v746q-407 7 -679 122t-414 291.5t-194.5 369.5t-52.5 388q0 355 127.5 587t329.5 352.5t426.5 164t456.5 43.5v778h385v-778q316 0 614.5 -87.5t511.5 -343t213 -716.5q0 -320 -124.5 -580t-424 -422t-790.5 -169v-746h-385zM1544 213v1778
q-397 0 -675.5 -187.5t-278.5 -681.5q0 -206 72.5 -409.5t286 -351.5t595.5 -148zM1896 1991v-1778q382 0 596 148t286.5 351.5t72.5 409.5q0 494 -278.5 681.5t-676.5 187.5z" />
    <glyph glyph-name="afii10086" unicode="&#x444;" horiz-adv-x="3441" 
d="M1528 -803v746q-407 7 -679 122t-414 291.5t-194.5 369.5t-52.5 388q0 355 127.5 587t329.5 352.5t426.5 164t456.5 43.5v778h385v-778q316 0 614.5 -87.5t511.5 -343t213 -716.5q0 -320 -124.5 -580t-424 -422t-790.5 -169v-746h-385zM1544 213v1778
q-397 0 -675.5 -187.5t-278.5 -681.5q0 -206 72.5 -409.5t286 -351.5t595.5 -148zM1896 1991v-1778q382 0 596 148t286.5 351.5t72.5 409.5q0 494 -278.5 681.5t-676.5 187.5z" />
    <glyph glyph-name="afii10087" unicode="&#xf5;" horiz-adv-x="2101" 
d="M1049 1389l565 819h426l-774 -1057l835 -1151h-430l-622 909l-623 -909h-426l831 1151l-782 1057h443z" />
    <glyph glyph-name="afii10087" unicode="&#x445;" horiz-adv-x="2101" 
d="M1049 1389l565 819h426l-774 -1057l835 -1151h-430l-622 909l-623 -909h-426l831 1151l-782 1057h443z" />
    <glyph glyph-name="afii10088" unicode="&#xf6;" horiz-adv-x="2593" 
d="M696 270h1106v1938h385v-1938h389l-36 -843h-320v573h-1909v2208h385v-1938z" />
    <glyph glyph-name="afii10088" unicode="&#x446;" horiz-adv-x="2593" 
d="M696 270h1106v1938h385v-1938h389l-36 -843h-320v573h-1909v2208h385v-1938z" />
    <glyph glyph-name="afii10089" unicode="&#xf7;" horiz-adv-x="2208" 
d="M197 2208h385v-680q0 -110 13 -171.5t60 -104t146 -64t276 -21.5q65 0 434 17v1024h385v-2208h-385v913q-453 -16 -512 -16q-371 0 -547 79.5t-215.5 193.5t-39.5 296v742z" />
    <glyph glyph-name="afii10089" unicode="&#x447;" horiz-adv-x="2208" 
d="M197 2208h385v-680q0 -110 13 -171.5t60 -104t146 -64t276 -21.5q65 0 434 17v1024h385v-2208h-385v913q-453 -16 -512 -16q-371 0 -547 79.5t-215.5 193.5t-39.5 296v742z" />
    <glyph glyph-name="afii10090" unicode="&#xf8;" horiz-adv-x="3613" 
d="M696 270h918v1938h385v-1938h917v1938h385v-2208h-2990v2208h385v-1938z" />
    <glyph glyph-name="afii10090" unicode="&#x448;" horiz-adv-x="3613" 
d="M696 270h918v1938h385v-1938h917v1938h385v-2208h-2990v2208h385v-1938z" />
    <glyph glyph-name="afii10091" unicode="&#xf9;" horiz-adv-x="3690" 
d="M696 270h918v1938h385v-1938h917v1938h385v-1938h373l-37 -843h-319v573h-3007v2208h385v-1938z" />
    <glyph glyph-name="afii10091" unicode="&#x449;" horiz-adv-x="3690" 
d="M696 270h918v1938h385v-1938h917v1938h385v-1938h373l-37 -843h-319v573h-3007v2208h385v-1938z" />
    <glyph glyph-name="afii10092" unicode="&#xfa;" horiz-adv-x="2564" 
d="M57 1937v271h955v-877h553q210 0 394 -34.5t337 -183.5t153 -454q0 -267 -117 -413t-283.5 -196t-352.5 -50h-1069v1937h-570zM1012 1061v-791h532q508 0 508 418q0 240 -155.5 306.5t-421.5 66.5h-463z" />
    <glyph glyph-name="afii10092" unicode="&#x44a;" horiz-adv-x="2564" 
d="M57 1937v271h955v-877h553q210 0 394 -34.5t337 -183.5t153 -454q0 -267 -117 -413t-283.5 -196t-352.5 -50h-1069v1937h-570zM1012 1061v-791h532q508 0 508 418q0 240 -155.5 306.5t-421.5 66.5h-463z" />
    <glyph glyph-name="afii10093" unicode="&#xfb;" horiz-adv-x="3101" 
d="M311 2208h385v-877h553q218 0 401.5 -34.5t333.5 -184t150 -453.5q0 -267 -117.5 -413.5t-284 -196t-352.5 -49.5h-1069v2208zM696 1061v-791h533q512 0 512 418q0 239 -159 306t-423 67h-463zM2404 2208h385v-2208h-385v2208z" />
    <glyph glyph-name="afii10093" unicode="&#x44b;" horiz-adv-x="3101" 
d="M311 2208h385v-877h553q218 0 401.5 -34.5t333.5 -184t150 -453.5q0 -267 -117.5 -413.5t-284 -196t-352.5 -49.5h-1069v2208zM696 1061v-791h533q512 0 512 418q0 239 -159 306t-423 67h-463zM2404 2208h385v-2208h-385v2208z" />
    <glyph glyph-name="afii10094" unicode="&#xfc;" horiz-adv-x="2232" 
d="M311 2208h385v-877h549q214 0 399 -34.5t337.5 -184t152.5 -453.5q0 -413 -243 -536t-515 -123h-1065v2208zM696 1061v-791h529q512 0 512 418q0 172 -88 254t-205 100.5t-285 18.5h-463z" />
    <glyph glyph-name="afii10094" unicode="&#x44c;" horiz-adv-x="2232" 
d="M311 2208h385v-877h549q214 0 399 -34.5t337.5 -184t152.5 -453.5q0 -413 -243 -536t-515 -123h-1065v2208zM696 1061v-791h529q512 0 512 418q0 172 -88 254t-205 100.5t-285 18.5h-463z" />
    <glyph glyph-name="afii10095" unicode="&#xfd;" horiz-adv-x="2392" 
d="M860 1012v270h950q-7 291 -109 454.5t-239 221t-278 57.5q-271 0 -447.5 -133t-191.5 -366h-357q36 314 194.5 484.5t357 225.5t407.5 55q234 0 464.5 -75.5t411.5 -341t181 -779.5q0 -479 -166 -737.5t-395 -342t-476 -83.5q-377 0 -658 169t-349 675h364
q27 -241 175 -407t468 -166q408 0 528 272.5t120 546.5h-955z" />
    <glyph glyph-name="afii10095" unicode="&#x44d;" horiz-adv-x="2392" 
d="M860 1012v270h950q-7 291 -109 454.5t-239 221t-278 57.5q-271 0 -447.5 -133t-191.5 -366h-357q36 314 194.5 484.5t357 225.5t407.5 55q234 0 464.5 -75.5t411.5 -341t181 -779.5q0 -479 -166 -737.5t-395 -342t-476 -83.5q-377 0 -658 169t-349 675h364
q27 -241 175 -407t468 -166q408 0 528 272.5t120 546.5h-955z" />
    <glyph glyph-name="afii10096" unicode="&#xfe;" horiz-adv-x="3387" 
d="M696 1294h361q36 394 288 697t777 303q175 0 411 -67.5t451 -332.5t215 -788q0 -278 -73 -497.5t-213.5 -375.5t-340.5 -237.5t-450 -81.5q-395 0 -635 177.5t-338 432.5t-100 504h-353v-1028h-385v2208h385v-914zM1442 1106q0 -203 46.5 -406t198.5 -359.5t435 -156.5
q232 0 383 117t222 325.5t71 479.5q0 198 -46.5 400t-197 359.5t-432.5 157.5q-283 0 -435 -156t-198.5 -358t-46.5 -403z" />
    <glyph glyph-name="afii10096" unicode="&#x44e;" horiz-adv-x="3387" 
d="M696 1294h361q36 394 288 697t777 303q175 0 411 -67.5t451 -332.5t215 -788q0 -278 -73 -497.5t-213.5 -375.5t-340.5 -237.5t-450 -81.5q-395 0 -635 177.5t-338 432.5t-100 504h-353v-1028h-385v2208h385v-914zM1442 1106q0 -203 46.5 -406t198.5 -359.5t435 -156.5
q232 0 383 117t222 325.5t71 479.5q0 198 -46.5 400t-197 359.5t-432.5 157.5q-283 0 -435 -156t-198.5 -358t-46.5 -403z" />
    <glyph glyph-name="afii10097" unicode="&#xff;" horiz-adv-x="2306" 
d="M1159 868l-577 -868h-422l598 872q-234 24 -414 176t-180 463q0 227 134.5 462t594.5 235h1102v-2208h-385v868h-451zM1610 1937h-549q-215 0 -363.5 -79.5t-148.5 -333.5q0 -389 524 -389h537v802z" />
    <glyph glyph-name="afii10097" unicode="&#x44f;" horiz-adv-x="2306" 
d="M1159 868l-577 -868h-422l598 872q-234 24 -414 176t-180 463q0 227 134.5 462t594.5 235h1102v-2208h-385v868h-451zM1610 1937h-549q-215 0 -363.5 -79.5t-148.5 -333.5q0 -389 524 -389h537v802z" />
    <glyph glyph-name="afii10059" unicode="&#x152;" horiz-adv-x="4719" 
d="M778 1458v-1458h-409v3039h409v-1237h1528v1237h410v-1237h872q130 0 291.5 -33t322 -127t269 -279t108.5 -474q0 -147 -40.5 -295t-147.5 -284.5t-306 -223t-497 -86.5h-1282v1458h-1528zM2716 1458v-1114h823q122 0 260 41t246 165t108 351q0 557 -667 557h-770z" />
    <glyph glyph-name="afii10107" unicode="&#x153;" horiz-adv-x="3707" 
d="M696 1061v-1061h-385v2208h385v-877h1090v877h385v-877h553q217 0 401 -34.5t334 -184t150 -453.5q0 -659 -754 -659h-1069v1061h-1090zM2171 1061v-791h532q512 0 512 418q0 239 -158.5 306t-418.5 67h-467z" />
    <glyph glyph-name="afii10058" unicode="&#x160;" horiz-adv-x="4940" 
d="M57 0v356q61 -12 111 -12q236 0 367 195.5t180.5 497.5t58.5 696l29 1306h1904v-1237h873q205 0 426 -66t393 -270t172 -577q0 -291 -110 -474t-272.5 -272t-319 -116t-289.5 -27h-1282v2695h-1090l-28 -1048q-8 -314 -37.5 -570.5t-122.5 -512t-283 -418t-495 -162.5
q-53 0 -185 16zM2707 1458v-1114h824q122 0 260 41t246 165t108 351q0 557 -667 557h-771z" />
    <glyph glyph-name="afii10106" unicode="&#x161;" horiz-adv-x="3678" 
d="M57 0v283q53 -13 107 -13q188 0 276.5 147t110.5 354t35 605l20 832h1536v-869h553q355 0 620 -123t265 -557q0 -290 -136 -436.5t-299 -184.5t-319 -38h-1069v1937h-790l-17 -561q-12 -369 -27.5 -563.5t-78 -390t-206.5 -317t-388 -121.5q-100 0 -193 16zM2142 1073
v-803h533q512 0 512 418q0 245 -167 315t-411 70h-467z" />
    <glyph glyph-name="afii10193" unicode="&#x178;" horiz-adv-x="2507" 
d="M1810 270v1938h385v-2208h-757v-803h-373v803h-754v2208h381v-1938h1118z" />
    <glyph glyph-name="emdash" unicode="&#x2013;" horiz-adv-x="2638" 
d="M229 1634h2179v-229h-2179v229z" />
    <glyph glyph-name="endash" unicode="&#x2014;" horiz-adv-x="3613" 
d="M-115 1020v270h3842v-270h-3842z" />
    <glyph glyph-name="quoteleft" unicode="&#x2018;" horiz-adv-x="1348" 
d="M889 2482v-475h-430v496q0 236 80 393.5t350 228.5v-237q-139 -32 -178 -129t-39 -256v-21h217z" />
    <glyph glyph-name="quoteright" unicode="&#x2019;" horiz-adv-x="1348" 
d="M459 2564v475h430v-622q0 -120 -55.5 -226.5t-153.5 -177.5t-221 -92v233q95 25 156 102t61 173v135h-217z" />
    <glyph glyph-name="quotesinglbase" unicode="&#x201a;" horiz-adv-x="1348" 
d="M459 0v475h430v-622q0 -155 -98.5 -297.5t-331.5 -198.5v237q94 19 155.5 97.5t61.5 173.5v135h-217z" />
    <glyph glyph-name="quotedblleft" unicode="&#x201c;" horiz-adv-x="1835" 
d="M774 2482v-475h-430v496q0 236 79.5 393.5t350.5 228.5v-237q-139 -32 -178 -129t-39 -256v-21h217zM1491 2482v-475h-430v496q0 236 80 393.5t350 228.5v-237q-139 -32 -178 -129t-39 -256v-21h217z" />
    <glyph glyph-name="quotedblright" unicode="&#x201d;" horiz-adv-x="1835" 
d="M344 2564v475h430v-622q0 -120 -55.5 -226.5t-153.5 -177.5t-221 -92v233q95 25 156 102t61 173v135h-217zM1061 2564v475h430v-622q0 -120 -55.5 -226.5t-153.5 -177.5t-221 -92v233q95 25 156 102t61 173v135h-217z" />
    <glyph glyph-name="quotedblbase" unicode="&#x201e;" horiz-adv-x="1835" 
d="M344 0v475h430v-622q0 -155 -98.5 -297.5t-331.5 -198.5v237q94 19 155.5 97.5t61.5 173.5v135h-217zM1061 0v475h430v-622q0 -155 -98.5 -297.5t-331.5 -198.5v237q94 19 155.5 97.5t61.5 173.5v135h-217z" />
    <glyph glyph-name="dagger" unicode="&#x2020;" horiz-adv-x="2171" 
d="M913 3039h344v-831h803v-299h-803v-2712h-344v2712h-802v299h802v831z" />
    <glyph glyph-name="bullet" unicode="&#x2022;" horiz-adv-x="3039" 
d="M1147 1520q0 146 104.5 259t268.5 113q144 0 258 -102.5t114 -269.5q0 -164 -113 -268.5t-259 -104.5q-112 0 -196.5 53.5t-130.5 140.5t-46 179z" />
    <glyph glyph-name="ellipsis" unicode="&#x2026;" horiz-adv-x="4043" 
d="M459 0v475h430v-475h-430zM1806 0v475h430v-475h-430zM3154 0v475h430v-475h-430z" />
    <glyph glyph-name="perthousand" unicode="&#x2030;" horiz-adv-x="5636" 
d="M852 0l1970 3039h307l-1970 -3039h-307zM229 2204q0 310 111.5 505t276 279t329.5 84q147 0 311.5 -77t283 -271.5t118.5 -519.5q0 -193 -63 -390t-222 -336t-428 -139q-254 0 -414.5 129.5t-231.5 329t-71 406.5zM508 2204q0 -226 99 -430.5t339 -204.5
q267 0 350.5 217.5t83.5 417.5q0 315 -123.5 477t-310.5 162q-114 0 -214.5 -70t-162 -214t-61.5 -355zM2302 836q0 194 63 390t222 335t428 139q226 0 388 -112.5t243 -309.5t81 -442q0 -266 -77.5 -440.5t-192.5 -266.5t-232 -127t-210 -35q-147 0 -311.5 77t-283 272.5
t-118.5 519.5zM2580 836q0 -317 124 -478t311 -161q118 0 216 68.5t158 212.5t60 358q0 260 -105.5 447t-328.5 187q-267 0 -351 -217t-84 -417zM3981 836q0 194 63 390t222 335t428 139q228 0 389 -112t242.5 -309t81.5 -443q0 -266 -77.5 -440.5t-192.5 -266.5
t-232.5 -127t-210.5 -35q-147 0 -311.5 77t-283 272.5t-118.5 519.5zM4260 836q0 -317 124 -478t310 -161q118 0 216 68.5t158 212.5t60 358q0 262 -105 448t-329 186q-265 0 -349.5 -217t-84.5 -417z" />
    <glyph glyph-name="guilsinglleft" unicode="&#x2039;" horiz-adv-x="1245" 
d="M270 1360l648 573v-360l-463 -389l463 -398v-348l-648 566v356z" />
    <glyph glyph-name="guilsinglright" unicode="&#x203a;" horiz-adv-x="1245" 
d="M975 1360v-356l-647 -566v348l463 394l-463 393v364z" />
    <glyph glyph-name="trademark" unicode="&#x2122;" horiz-adv-x="3736" 
d="M578 2802h-492v237h1307v-237h-492v-1282h-323v1282zM2507 1520l-443 1163h-24l16 -197v-966h-323v1519h434l409 -1044l37 -156h17l36 156l406 1044h434v-1519h-323v966l16 197h-21l-446 -1163h-225z" />
    <glyph glyph-name="edieresis" horiz-adv-x="2494" 
d="M1901 639h380q-56 -268 -277 -488.5t-697 -220.5q-367 0 -743 215t-376 949q0 364 120.5 630.5t364 409.5t597.5 143q395 0 715.5 -227t320.5 -924v-110h-1708q0 -190 66.5 -376t222.5 -312.5t407 -126.5q270 0 418 129t189 309zM598 1286h1303q-23 234 -86 392
t-192.5 245.5t-340.5 87.5q-240 0 -393 -108t-219.5 -271t-71.5 -346zM578 2638v401h401v-401h-401zM1610 2638v401h401v-401h-401z" />
    <glyph glyph-name="minus" horiz-adv-x="2638" 
d="M229 1634h2179v-229h-2179v229z" />
    <glyph glyph-name="oe" horiz-adv-x="4223" 
d="M3629 639h381q-55 -269 -277.5 -489t-697.5 -220q-289 0 -515 83.5t-386 346.5q-94 -190 -257 -290t-318.5 -128t-288.5 -28q-252 0 -452 81t-341.5 237t-215 378.5t-73.5 495.5q0 279 72.5 497.5t213 373.5t343 236t453.5 81q606 0 868 -439q108 184 273 278.5
t310.5 119t276.5 24.5q396 0 716.5 -225t320.5 -926v-110h-1708q0 -190 66 -376t222 -312.5t408 -126.5q270 0 418.5 130t187.5 308zM590 1106q0 -203 46.5 -406t198.5 -359.5t435 -156.5q232 0 383 117t222 325.5t71 479.5q0 198 -46.5 400t-197 359.5t-432.5 157.5
q-283 0 -435 -156t-198.5 -358t-46.5 -403zM2327 1286h1302q-33 355 -171.5 540t-446.5 185q-242 0 -394 -107.5t-218.5 -271.5t-71.5 -346z" />
    <glyph glyph-name="OE" horiz-adv-x="4952" 
d="M2662 3039h2167v-344h-1761v-954h1593v-344h-1593v-1053h1810v-344h-2216v365q-336 -455 -1015 -455q-460 0 -787 197t-495 560.5t-168 852.5q0 707 281.5 1065t596 449t567.5 91q309 0 575.5 -101t444.5 -403v418zM1647 254q335 0 563.5 158.5t340 444.5t111.5 663
q0 376 -94.5 628t-246 390t-324 192.5t-350.5 54.5t-351 -54.5t-324 -193t-246 -391t-95 -626.5q0 -327 91 -613t318 -469.5t607 -183.5z" />
    <glyph glyph-name="ae" horiz-adv-x="3949" 
d="M602 1556h-364q2 157 74 316.5t278.5 276t580.5 116.5q589 0 758 -344q225 356 795 356q398 0 717 -225t319 -926v-110h-1708q0 -179 60 -364.5t215.5 -318t420.5 -132.5q271 0 419.5 130t187.5 308h381q-35 -163 -132 -321t-302 -273t-529 -115q-294 0 -534.5 94.5
t-387.5 364.5q-285 -446 -860 -446q-306 0 -568.5 114.5t-262.5 520.5q0 241 126 383.5t358.5 211.5t596.5 105q107 10 193 19.5t134.5 32.5t75.5 81.5t27 169.5q0 209 -132 313.5t-363 104.5q-357 0 -465.5 -144t-108.5 -299zM1671 942v188q-37 -37 -93 -53.5t-198 -32.5
q-330 -37 -482.5 -69t-252.5 -120.5t-100 -264.5q0 -144 100 -262.5t338 -118.5q229 0 383.5 100t229.5 266t75 367zM2052 1286h1303q-23 234 -86 392t-192.5 245.5t-340.5 87.5q-240 0 -393 -108t-219.5 -271t-71.5 -346z" />
    <glyph glyph-name="AE" horiz-adv-x="4325" 
d="M2040 0v786h-1147l-430 -786h-479l1691 3039h2532v-344h-1762v-954h1594v-344h-1594v-1053h1807v-344h-2212zM2040 1130v1565h-115l-848 -1565h963z" />
    <glyph glyph-name="oslash" horiz-adv-x="2535" 
d="M188 0l242 287q-151 195 -196.5 422.5t-45.5 396.5q0 280 72.5 499.5t213.5 374t343 234.5t453 80q413 0 676 -205l237 283l193 -164l-254 -303q225 -322 225 -799q0 -243 -59.5 -454.5t-188.5 -378.5t-337.5 -263t-491.5 -96q-195 0 -351.5 37t-308.5 155l-229 -270z
M676 582l1057 1253q-169 188 -463 188q-258 0 -410 -136.5t-211 -342t-59 -438.5q0 -338 86 -524zM1872 1610l-1053 -1250q112 -108 212.5 -142t238.5 -34q156 0 306 67.5t260 271.5t110 583q0 315 -74 504z" />
    <glyph glyph-name="ccedilla" horiz-adv-x="2384" 
d="M1860 786h368q-25 -194 -121.5 -390.5t-293.5 -333t-494 -136.5l-4 -37q115 0 186.5 -60.5t71.5 -160.5q0 -124 -90 -205t-369 -81h-53q-17 4 -53 4h-4l20 163q43 -10 106 -16h58q188 15 188 127q0 81 -110 90h-62q-28 0 -94 -8l33 184q-208 8 -382.5 87t-302.5 229.5
t-199 374.5t-71 505q0 397 201 780.5t852 383.5q455 0 691.5 -224.5t267.5 -545.5h-361q-25 178 -155 340.5t-439 162.5q-266 0 -412 -146.5t-194.5 -345.5t-48.5 -405q0 -274 79 -484.5t232.5 -327.5t372.5 -117q328 0 449 204.5t137 388.5z" />
    <glyph glyph-name="Ccedilla" horiz-adv-x="3105" 
d="M2519 1008h422q-35 -319 -197 -568.5t-434.5 -389.5t-621.5 -140l-13 -90q137 -12 222 -92t85 -199q0 -328 -495 -328q-61 0 -119 8q-67 9 -111 9h-4l33 196q96 -28 201 -28q135 0 192.5 46.5t57.5 100.5q0 123 -213 123h-29q-12 -4 -33 -4h-53l57 270
q-319 13 -609.5 180t-475 511t-184.5 853q0 292 76.5 649t395.5 683.5t961 326.5q358 0 604.5 -97t386.5 -252t200.5 -327.5t74.5 -347.5h-418q-19 266 -217 473t-631 207q-341 0 -565.5 -165t-329 -456.5t-104.5 -676.5q0 -238 65 -458t194 -393.5t324 -273.5t445 -100
q256 0 445 103t293.5 273.5t121.5 373.5z" />
    <glyph glyph-name="acute" horiz-adv-x="1352" 
d="M713 3039h458l-417 -573h-344z" />
    <glyph glyph-name="caron" 
d="M287 2466h-574l-516 573h385l418 -430l422 430h381z" />
    <glyph glyph-name="circumflex" 
d="M-287 3039h574l516 -573h-381l-422 430l-418 -430h-385z" />
    <glyph glyph-name="dieresis" 
d="M-717 2638v401h402v-401h-402zM315 2638v401h402v-401h-402z" />
    <glyph glyph-name="tilde" 
d="M553 3039h250q-27 -180 -152 -311t-332 -131q-58 0 -101 8.5t-90 27.5t-115.5 53t-118.5 58q-141 66 -222 66q-196 0 -221 -168h-254q18 123 85.5 221.5t172 153.5t226.5 55q125 0 189 -28.5t212 -110.5q128 -74 237 -74q176 0 234 180z" />
    <glyph glyph-name="macron" 
d="M-688 2662v258h1376v-258h-1376z" />
    <glyph glyph-name="breve" 
d="M-745 3039h319q56 -344 426 -344t426 344h319q-35 -237 -219 -405t-526 -168q-234 0 -395 82.5t-245 212t-105 278.5z" />
    <glyph glyph-name="ring" 
d="M-401 2753q0 158 112 279.5t289 121.5t289 -121.5t112 -279.5q0 -101 -50 -193.5t-142.5 -150.5t-208.5 -58t-208.5 58t-142.5 150.5t-50 193.5zM-229 2753q0 -96 71 -163t158 -67q90 0 159.5 64.5t69.5 165.5q0 104 -68.5 166.5t-160.5 62.5q-89 0 -159 -66t-70 -163z
" />
    <glyph glyph-name="hungarumlaut" 
 />
    <glyph glyph-name="cedilla" horiz-adv-x="4" 
d="M-369 -803l58 189q64 -29 209 -29q111 0 162 42t51 97q0 131 -238 131q-9 0 -28 -2t-29 -2h-54l50 172h110q443 0 443 -323q0 -299 -431 -299q-106 0 -303 24z" />
    <glyph glyph-name="Edieresis" horiz-adv-x="2662" 
d="M815 3351v344h406v-344h-406zM1749 3351v344h405v-344h-405zM778 1741h1594v-344h-1594v-1053h1811v-344h-2220v3039h2171v-344h-1762v-954z" />
    <glyph glyph-name="zeroslash" 
 />
    <glyph glyph-name="star" horiz-adv-x="3510" 
d="M1425 1692l328 1036l324 -1036h1089l-876 -652l331 -1040l-868 651l-872 -651l340 1040l-877 652h1081zM1593 1462h-557l455 -336l-168 -508l430 320l430 -324l-164 512l451 336h-561l-156 500z" />
    <glyph glyph-name="divide" horiz-adv-x="2638" 
d="M1061 2171q0 101 71 177.5t187 76.5q112 0 183 -77.5t71 -176.5t-71 -176.5t-183 -77.5q-116 0 -187 76.5t-71 177.5zM1061 696q0 111 77.5 184.5t180.5 73.5q105 0 179.5 -82t74.5 -176q0 -99 -71 -176.5t-183 -77.5q-116 0 -187 76.5t-71 177.5zM229 1319v229h2179
v-229h-2179z" />
    <glyph glyph-name="notequal" horiz-adv-x="2753" 
d="M287 1577v287h1208l385 671l197 -114l-320 -557h709v-287h-873l-168 -287h1041v-286h-1204l-390 -672l-196 114l319 558h-708v286h876l164 287h-1040z" />
    <glyph glyph-name="greaterequal" horiz-adv-x="2753" 
d="M2372 1434l-1905 -922l-94 229l1462 693l-1462 692l94 229zM2380 893l-1905 -922l-102 226l1904 921z" />
    <glyph glyph-name="lessequal" horiz-adv-x="2753" 
d="M377 1434l1904 921l99 -229l-1462 -692l1462 -693l-99 -229zM373 893l98 225l1909 -921l-103 -226z" />
    <glyph glyph-name="emptyset" horiz-adv-x="3002" 
d="M229 -205l398 475q-221 224 -297 465.5t-76 423.5q0 229 89.5 452.5t255 403t397 284.5t503.5 105q397 0 717 -229h4l397 475l156 -127l-401 -479q372 -367 372 -885q0 -311 -157 -599t-442.5 -467t-645.5 -179q-383 0 -713 221l-393 -467zM774 446l1294 1549
q-218 180 -569 180q-220 0 -409.5 -85t-324.5 -229.5t-208.5 -329t-73.5 -372.5q0 -408 291 -713zM2224 1868l-1290 -1553q211 -172 565 -172q224 0 413 83.5t324.5 229t207 329t71.5 374.5q0 413 -291 709z" />
    <glyph glyph-name="dotmath" horiz-adv-x="889" 
d="M229 1282v475h430v-475h-430z" />
    <glyph glyph-name="radical" 
 />
    <glyph glyph-name="cent" horiz-adv-x="2384" 
d="M1860 786h368q-26 -210 -125 -403.5t-282 -320.5t-445 -136v-327h-229v327q-279 6 -496.5 145t-340 407t-122.5 644q0 283 73 501t204.5 363.5t305 219.5t376.5 80v294h229v-299q218 -12 397.5 -110t292 -268.5t134.5 -386.5h-361q-24 160 -127.5 312t-335.5 183v-1814
q230 28 347.5 204.5t136.5 384.5zM1147 205v1806q-308 -35 -432.5 -298t-124.5 -591q0 -250 105.5 -553.5t451.5 -363.5z" />
    <glyph glyph-name="approxequal" horiz-adv-x="2753" 
d="M365 1503l-78 33q128 317 279 443t286 126q89 0 191.5 -38t275.5 -121q561 -263 639 -263q187 0 352 271q15 22 37.5 57t40.5 62l78 -37q-144 -293 -266.5 -445.5t-294.5 -152.5q-105 0 -248.5 46.5t-407.5 178.5q-372 188 -516 188q-117 0 -189 -83t-179 -265zM365 651
l-78 37q115 287 269 428t296 141q89 0 191.5 -38t275.5 -121q554 -262 639 -262q177 0 352 270q8 12 23.5 35t31 45.5t23.5 34.5l78 -33q-144 -293 -266.5 -445.5t-294.5 -152.5q-108 0 -252 46.5t-404 178.5q-372 189 -516 189q-97 0 -182 -85.5t-186 -267.5z" />
    <glyph glyph-name="adieresis" horiz-adv-x="2400" 
d="M602 1556h-364q2 160 73 318t280 274.5t585 116.5q373 0 568 -117.5t251.5 -272.5t56.5 -327l-20 -1020q0 -116 38.5 -180.5t190.5 -64.5v-283q-148 -16 -172 -16q-183 0 -276.5 67t-120.5 252q-73 -121 -189.5 -202.5t-262 -121.5t-302.5 -40q-379 0 -578.5 163
t-199.5 476q0 241 126 383.5t358.5 211.5t596.5 105q107 10 193 19.5t134.5 32.5t75.5 81.5t27 169.5q0 209 -132 313.5t-363 104.5q-357 0 -465.5 -144t-108.5 -299zM1663 942l8 188q-37 -37 -93 -53.5t-198 -32.5q-330 -37 -482.5 -69t-252.5 -120.5t-100 -264.5
q0 -142 100.5 -261.5t337.5 -119.5q154 0 302.5 60t256 222.5t121.5 450.5zM483 2638v401h402v-401h-402zM1516 2638v401h401v-401h-401z" />
    <glyph glyph-name="odieresis" horiz-adv-x="2535" 
d="M188 1106q0 279 72.5 497.5t213 373.5t343 236t453.5 81q356 0 598 -154t360.5 -422t118.5 -612q0 -367 -128.5 -637.5t-372 -412.5t-576.5 -142q-252 0 -452 81t-341.5 237t-215 378.5t-73.5 495.5zM590 1106q0 -203 46.5 -406t198.5 -359.5t435 -156.5q232 0 383 117
t222 325.5t71 479.5q0 198 -46.5 400t-197 359.5t-432.5 157.5q-283 0 -435 -156t-198.5 -358t-46.5 -403zM549 2638v401h405v-401h-405zM1581 2638v401h406v-401h-406z" />
    <glyph glyph-name="udieresis" horiz-adv-x="2486" 
d="M2175 0h-377l4 311h-12q-136 -201 -339 -286.5t-415 -85.5q-443 0 -584 244t-141 558v1467h385v-1352q0 -318 101.5 -468t361.5 -150q391 0 511 238t120 528v1204h385v-2208zM524 2638v401h406v-401h-406zM1556 2638v401h406v-401h-406z" />
    <glyph glyph-name="dotlessi" horiz-adv-x="1012" 
d="M311 2208h389v-2208h-389v2208z" />
    <glyph glyph-name="Oslash" horiz-adv-x="3379" 
d="M197 0l360 426q-171 226 -251.5 543t-80.5 628q0 351 97 632.5t285 484.5t458.5 309t613.5 106q333 0 553 -80t361 -194l368 438l222 -184l-381 -451q327 -389 327 -1061q0 -359 -83.5 -663t-261 -535t-455.5 -360t-650 -129q-174 0 -327 22.5t-306.5 89.5t-295.5 187
l-332 -393zM2527 2327l-1523 -1811q243 -262 675 -262q416 0 643 225.5t300 524t73 598.5q0 424 -168 725zM831 758l1512 1798q-68 72 -178 124t-238 78.5t-248 26.5q-227 0 -455 -91t-394 -355.5t-166 -736.5q0 -507 167 -844z" />
    <glyph glyph-name="Adieresis" horiz-adv-x="2716" 
d="M709 786l-287 -786h-438l1151 3039h446l1151 -3039h-446l-291 786h-1286zM819 1130h1065l-532 1496zM688 3351v344h406v-344h-406zM1622 3351v344h406v-344h-406z" />
    <glyph glyph-name="Odieresis" horiz-adv-x="3297" 
d="M1651 -90q-390 0 -673.5 133.5t-455 363t-248.5 514t-77 599.5q0 421 146.5 787t474 594t833.5 228q345 0 615.5 -112.5t457 -323.5t282 -507t95.5 -666q0 -371 -95 -668.5t-279.5 -508t-457.5 -322t-618 -111.5zM1651 254q335 0 563.5 158.5t340 444.5t111.5 663
q0 374 -95 627t-246.5 391t-324.5 192.5t-349 54.5q-203 0 -428 -83t-406.5 -365t-181.5 -817q0 -329 92 -613.5t319 -468.5t605 -184zM979 3351v344h410v-344h-410zM1913 3351v344h409v-344h-409z" />
    <glyph glyph-name="Udieresis" horiz-adv-x="3023" 
d="M311 3039h410v-1810q0 -243 40.5 -439t214.5 -353.5t535 -157.5q304 0 478.5 116t243.5 325t69 509v1810h410v-1863q0 -475 -162 -751.5t-428.5 -383.5t-610.5 -107q-528 0 -793.5 203.5t-336 467.5t-70.5 571v1863zM840 3351v344h405v-344h-405zM1774 3351v344h405v-344
h-405z" />
    <glyph glyph-name="Acute" horiz-adv-x="3105" 
d="M1360 0v831l-172 189l-733 -1020h-471l934 1262l-848 946h446l844 -1000v1000h385v-1000l844 1000h446l-844 -946l930 -1262h-471l-733 1020l-172 -189v-831h-385z" />
    <glyph glyph-name="Grave" horiz-adv-x="2249" 
d="M696 1204l398 377l606 627h471l-844 -840l938 -1368h-442l-762 1143l-365 -344v-799h-385v2208h385v-1004z" />
    <glyph glyph-name="Caron" horiz-adv-x="3805" 
d="M1708 -803v1077q-52 -111 -200 -231.5t-435 -120.5q-264 0 -464.5 139t-310.5 405.5t-110 635.5q0 412 125.5 679.5t326.5 386t433 118.5q436 0 639 -344l-4 1097h385l-4 -1097q197 344 643 344q264 0 464.5 -138.5t310.5 -406t110 -639.5q0 -371 -110 -637
t-310.5 -404.5t-464.5 -138.5q-457 0 -639 352v-1077h-385zM590 1102q0 -449 163.5 -675t426.5 -226q132 0 260.5 70.5t220.5 273t92 561.5q0 281 -75.5 484.5t-209.5 308t-305 104.5q-134 0 -262.5 -69t-219.5 -269t-91 -563zM3215 1102q0 478 -164 689.5t-413 211.5
q-170 0 -303.5 -103.5t-210 -306t-76.5 -487.5q0 -359 92 -561.5t220.5 -273t260.5 -70.5q260 0 427 226.5t167 674.5z" />
    <glyph glyph-name="Circumflex" horiz-adv-x="3936" 
d="M1765 0v1147l-258 307l-991 -1454h-532l1228 1716l-1130 1323h500l1183 -1433v1433h406v-1433l1188 1433h499l-1130 -1323l1225 -1716h-529l-995 1454l-258 -307v-1147h-406z" />
    <glyph glyph-name="Dieresis" 
d="M-672 3351v344h406v-344h-406zM262 3351v344h406v-344h-406z" />
    <glyph glyph-name="Tilde" 
 />
    <glyph glyph-name="Macron" 
 />
    <glyph glyph-name="Brieve" 
 />
    <glyph glyph-name="Ring" 
 />
    <glyph glyph-name="Hungarumlaut" 
 />
    <glyph glyph-name="dotaccent" 
 />
    <glyph glyph-name="exclamdown" horiz-adv-x="1348" 
d="M889 -803h-430v1139l110 999h213l107 -999v-1139zM889 2208v-475h-430v475h430z" />
    <glyph glyph-name="questiondown" horiz-adv-x="2380" 
d="M1425 2208v-475h-430v475h430zM1774 115h376q0 -596 -292.5 -794t-657.5 -198q-271 0 -491.5 84.5t-350 262t-129.5 440.5q0 247 107.5 414t343.5 364q116 96 187.5 166.5t126.5 173.5t55 238v61h315q8 -82 8 -119q0 -224 -93 -366.5t-226 -255.5q-151 -129 -232 -207.5
t-146 -195t-65 -257.5q0 -121 61 -233.5t194.5 -185t338.5 -72.5q570 0 570 680z" />
    <glyph glyph-name="sterling" horiz-adv-x="2617" 
d="M2253 459l192 -258q-165 -148 -295 -205t-278 -57q-124 0 -240 26.5t-289 87.5q-130 45 -195 63.5t-173 18.5q-240 0 -467 -164l-197 279q227 162 333 334.5t106 390.5q0 143 -70 344h-451v266h320q-86 174 -127 308.5t-41 297.5q0 193 66.5 360t199.5 290.5t332.5 191.5
t458.5 68q400 0 675 -214.5t283 -793.5h-385v139q0 120 -48 253t-183 233t-371 100q-281 0 -454 -172t-173 -479q0 -82 15 -153.5t40.5 -133.5t78 -159t71.5 -136h610v-266h-507q40 -130 40 -270q0 -366 -282 -623l8 -25q119 45 315 45q113 0 171.5 -14.5t185.5 -58.5
q240 -82 356 -82q208 0 369 168z" />
    <glyph glyph-name="germandbls" horiz-adv-x="2429" 
d="M311 0v1974q0 219 21.5 390.5t108 336.5t278.5 270t514 105q249 0 435 -89t285 -256.5t99 -395.5q0 -206 -106.5 -375.5t-294.5 -222.5v-13q283 -52 452.5 -272t169.5 -559q0 -423 -241.5 -672.5t-688.5 -249.5q-171 0 -327 29v283q122 -41 258 -41q213 0 349 97.5
t196.5 249.5t60.5 316q0 289 -131 433t-290.5 179t-332.5 35h-110v267l135 -4q520 0 520 495q0 148 -53 261.5t-153.5 174t-235.5 60.5q-241 0 -358.5 -116t-146 -275t-28.5 -383v-2032h-385z" />
    <glyph glyph-name="minute" horiz-adv-x="954" 
d="M827 3039l-508 -831h-172l279 831h401z" />
    <glyph glyph-name="second" horiz-adv-x="1630" 
d="M827 3039l-508 -831h-172l279 831h401zM1503 3039l-504 -831h-172l275 831h401z" />
    <glyph glyph-name="multiply" horiz-adv-x="3039" 
d="M528 688l828 832l-828 831l160 160l832 -828l831 828l160 -160l-828 -831l828 -832l-160 -160l-831 828l-832 -828z" />
    <glyph glyph-name="afii10051" horiz-adv-x="3748" 
d="M254 2695v344h2384v-344h-987v-975q435 29 667 29q247 0 478.5 -59t407 -255.5t175.5 -570.5q0 -395 -172.5 -606t-387.5 -273.5t-415 -62.5q-96 0 -286 58v344q179 -58 290 -58q257 0 409.5 149.5t152.5 415.5q0 171 -53.5 294t-214.5 201.5t-461 78.5q-206 0 -590 -29
v-1376h-410v2695h-987z" />
    <glyph glyph-name="afii10060" horiz-adv-x="3748" 
d="M3379 0h-409v889q0 220 -70 330.5t-223 148t-436 37.5q-224 0 -590 -29v-1376h-410v2695h-987v344h2384v-344h-987v-975q435 29 667 29q380 0 604.5 -58.5t340.5 -231t116 -505.5v-954z" />
    <glyph glyph-name="afii10145" horiz-adv-x="3101" 
d="M2322 344v2695h410v-3039h-1003v-688h-357v688h-1003v3039h409v-2695h1544z" />
    <glyph glyph-name="afii10099" horiz-adv-x="2535" 
d="M344 3039h385v-270h918v-270h-918v-603q254 373 725 373q352 0 529.5 -167.5t229.5 -450.5t52 -742q0 -393 -31 -684.5t-130 -524t-303 -368t-535 -135.5v283h98q219 0 329.5 186t140.5 450t30 613v168q0 389 -28.5 606.5t-138.5 346t-341 128.5q-273 0 -412.5 -136.5
t-177 -305t-37.5 -332.5v-1204h-385v2499h-344v270h344v270z" />
    <glyph glyph-name="afii10108" horiz-adv-x="2519" 
d="M344 3039h385v-270h918v-270h-918v-603q273 373 754 373q444 0 584.5 -244t140.5 -559v-1466h-385v1352q0 265 -80.5 441.5t-382.5 176.5q-249 0 -440 -161.5t-191 -604.5v-1204h-385v2499h-344v270h344v270z" />
  </font>
</defs>
</svg>
